<svg id="Capa_1" data-name="Capa 1" xmlns="http://www.w3.org/2000/svg" viewBox="0 0 528 543.11"><defs><style>.cls-1{fill:#fff;}.cls-2{fill:#1d1d1b;}</style></defs><title>ilustracion</title><ellipse class="cls-1" cx="282.1" cy="271.03" rx="52.5" ry="57.5"/><path class="cls-2" d="M454.4,294.39a62.15,62.15,0,0,1-14.24,40,54.24,54.24,0,0,1-17,13.57A49.78,49.78,0,0,1,380.11,349,54.55,54.55,0,0,1,362,335.8a60.6,60.6,0,0,1-11.64-19.24,63.78,63.78,0,0,1,0-44.33A60.36,60.36,0,0,1,362,253a54.44,54.44,0,0,1,18.09-13.24,49.89,49.89,0,0,1,43.09,1.08,54.29,54.29,0,0,1,17,13.58A62.11,62.11,0,0,1,454.4,294.39Zm0,0a61,61,0,0,0-3.79-21.14A57.48,57.48,0,0,0,439.53,255a51.48,51.48,0,0,0-17.12-12.49,46.85,46.85,0,0,0-40.5,1.08,51.52,51.52,0,0,0-16,12.84,60.27,60.27,0,0,0,0,76,51.41,51.41,0,0,0,16,12.84,46.9,46.9,0,0,0,40.52,1.08,51.61,51.61,0,0,0,17.11-12.5,57.48,57.48,0,0,0,11.08-18.3A61,61,0,0,0,454.4,294.39Z" transform="translate(-119.8 -23.36)"/><ellipse class="cls-1" cx="408.1" cy="283.35" rx="41.5" ry="45.5"/><path class="cls-2" d="M569.4,306.71a50.08,50.08,0,0,1-11.16,31.71,43.34,43.34,0,0,1-13.37,11,39.79,39.79,0,0,1-34.54,1.26,44.2,44.2,0,0,1-14.68-10.55,47.88,47.88,0,0,1-9.48-15.49,50.67,50.67,0,0,1,0-35.79,47.83,47.83,0,0,1,9.47-15.5,44.09,44.09,0,0,1,14.69-10.55A39.84,39.84,0,0,1,544.88,264a43.23,43.23,0,0,1,13.37,11A50.13,50.13,0,0,1,569.4,306.71Zm0,0A48.09,48.09,0,0,0,566.34,290a44.26,44.26,0,0,0-8.82-14.38A40.6,40.6,0,0,0,544,265.93a36.36,36.36,0,0,0-31.54,1.27,39.78,39.78,0,0,0-12.23,10.09,47.18,47.18,0,0,0,0,58.84,38,38,0,0,0,27.71,14.34,36.47,36.47,0,0,0,16.07-3,40.4,40.4,0,0,0,13.55-9.69,44.41,44.41,0,0,0,8.82-14.39A48,48,0,0,0,569.4,306.71Z" transform="translate(-119.8 -23.36)"/><path class="cls-2" d="M448.68,287.71a36.26,36.26,0,0,1-61.51,26,36.63,36.63,0,0,1-8.12-11.88,36.24,36.24,0,0,1,0-28.27,36.25,36.25,0,0,1,69.63,14.14Zm0,0a35.69,35.69,0,0,0-2.76-13.57A34.7,34.7,0,0,0,389,263.52a34.75,34.75,0,1,0,56.93,37.75A35.68,35.68,0,0,0,448.68,287.71Z" transform="translate(-119.8 -23.36)"/><circle class="cls-1" cx="427.1" cy="275.85" r="19"/><path class="cls-2" d="M565.9,299.21a19.76,19.76,0,0,1-33.35,14.34A20.2,20.2,0,0,1,528,307a19.82,19.82,0,0,1,0-15.65,19.73,19.73,0,0,1,32.47-5.76A19.7,19.7,0,0,1,565.9,299.21Zm0,0a19,19,0,0,0-1.5-7.25,18.18,18.18,0,0,0-10.4-9.89,18.27,18.27,0,0,0-19.62,4.62,18.24,18.24,0,0,0,0,25,18.23,18.23,0,0,0,30-5.27A19,19,0,0,0,565.9,299.21Z" transform="translate(-119.8 -23.36)"/><path class="cls-2" d="M441.18,280.21a15.28,15.28,0,0,1-20,14.54,15.6,15.6,0,0,1-5.4-3.12,15.28,15.28,0,1,1,25.42-11.42Zm0,0a12.94,12.94,0,0,0-4.34-9.66,13.08,13.08,0,0,0-4.59-2.58,12.8,12.8,0,0,0-13.45,20.61,12.73,12.73,0,0,0,13.45,3.87,13.15,13.15,0,0,0,4.59-2.58A13,13,0,0,0,441.18,280.21Z" transform="translate(-119.8 -23.36)"/><circle class="cls-1" cx="431.51" cy="270.85" r="4.72"/><path class="cls-2" d="M556,294.21a5.53,5.53,0,0,1-1.24,3.48,5.43,5.43,0,0,1-7.74.77,5.59,5.59,0,0,1,0-8.51,5.44,5.44,0,0,1,7.75.77A5.54,5.54,0,0,1,556,294.21Zm0,0a4.13,4.13,0,0,0-1.53-3.2,3.94,3.94,0,0,0-5.62.77,4.09,4.09,0,0,0-.8,2.43,4,4,0,0,0,6.42,3.19A4.11,4.11,0,0,0,556,294.21Z" transform="translate(-119.8 -23.36)"/><path class="cls-2" d="M444.22,391.67a52.54,52.54,0,0,0,7.92-.84,56.32,56.32,0,0,0,7.71-1.89,38.12,38.12,0,0,0,13.66-7.58,28.07,28.07,0,0,0,8.27-12.88c.23-.6.33-1.25.5-1.87a15.27,15.27,0,0,0,.4-1.9l.31-1.91.17-1.94a18,18,0,0,0,.1-2l0-2,0-2-.06-2c-.29-10.56-1.35-21.14-2.7-31.67s-2.88-21.06-4.61-31.55-3.5-21-5.42-31.44l-.36-2-.18-1-.15-1.07a14.82,14.82,0,0,1,.08-4.36,15.63,15.63,0,0,1,3.64-7.81,16.57,16.57,0,0,1,3.29-2.85,16.93,16.93,0,0,1,3.94-1.81c2.57-.74,5.16-1.44,7.76-2.08,10.4-2.52,21.06-4.34,31.83-4.13a53.13,53.13,0,0,1,15.86,2.63,31.63,31.63,0,0,1,7.23,3.52,24.82,24.82,0,0,1,5.82,5.47A27.72,27.72,0,0,0,536,234.65a52.52,52.52,0,0,0-15.63-1.91c-10.57.09-21,2.13-31.24,4.89q-3.82,1.05-7.61,2.26a14.66,14.66,0,0,0-3.27,1.56,14.33,14.33,0,0,0-2.7,2.4,13,13,0,0,0-2.93,6.51,12.41,12.41,0,0,0,0,3.6l.14.9.19,1,.39,2q3,15.7,5.59,31.48c1.67,10.53,3.23,21.09,4.46,31.69a279.76,279.76,0,0,1,2.19,32v2l-.09,2-.09,2a20,20,0,0,1-.16,2l-.23,2-.38,2a15.28,15.28,0,0,1-.47,2c-.2.65-.33,1.33-.58,2a29.56,29.56,0,0,1-9.12,13.41,39,39,0,0,1-14.38,7.22A53.93,53.93,0,0,1,444.22,391.67Z" transform="translate(-119.8 -23.36)"/><path class="cls-2" d="M454.7,441.1c1.42-1.71,2.85-3.57,4.36-5.57s3.16-4.09,4.85-6.15l1.08,2.15a36.2,36.2,0,0,0-8.66,2.6,21.37,21.37,0,0,0-7,5,18.78,18.78,0,0,0-4.14,7.26,20.77,20.77,0,0,0-.86,4.16c-.08.71-.12,1.42-.14,2.13q0,.53,0,1.05c0,.32,0,.73.06.94v.31a15.36,15.36,0,0,0,.37,3.1c.08.51.27,1,.4,1.49a13.56,13.56,0,0,0,.6,1.41,10.44,10.44,0,0,0,3.83,4.43,7.3,7.3,0,0,0,2.59,1.05,7.22,7.22,0,0,0,2.78,0,9.08,9.08,0,0,0,5-2.88,13,13,0,0,0,3-5.62,15.3,15.3,0,0,0,.31-6.64,16.44,16.44,0,0,0-.93-3.27,14.11,14.11,0,0,0-1.73-3A11,11,0,0,0,454.7,441.1Zm0,0a10.71,10.71,0,0,1,6.85,3,15.32,15.32,0,0,1,4.07,6.63,18.27,18.27,0,0,1,.54,7.93,16.64,16.64,0,0,1-3.22,7.53,13,13,0,0,1-7.22,4.71,11.6,11.6,0,0,1-4.51.14,11.72,11.72,0,0,1-4.24-1.52,14.9,14.9,0,0,1-5.82-6.38,18.3,18.3,0,0,1-1.88-8.19l0,.31c-.06-.57-.08-1-.09-1.42s0-.88,0-1.32a22.59,22.59,0,0,1,.21-2.6,25.43,25.43,0,0,1,1.2-5.07,22.14,22.14,0,0,1,5.6-8.79A23.92,23.92,0,0,1,455,430.8a34.52,34.52,0,0,1,9.7-1.81l3.64-.22-2.56,2.36c-1.68,1.56-3.43,3.08-5.29,4.7S456.67,439.2,454.7,441.1Z" transform="translate(-119.8 -23.36)"/><path class="cls-2" d="M285.78,264.16c-1.44-2.33-3-4.59-4.6-6.79s-3.27-4.39-5-6.48a72.2,72.2,0,0,0-11.62-11.37,35.12,35.12,0,0,0-6.86-4.13,18.22,18.22,0,0,0-7.59-1.62,14,14,0,0,0-7.2,2.33,22.51,22.51,0,0,0-5.57,5.45,42.47,42.47,0,0,0-4.09,6.85,71,71,0,0,0-3.13,7.42,89.66,89.66,0,0,0-3.94,15.67,128.56,128.56,0,0,0-.95,32.38,134.65,134.65,0,0,0,6.68,31.72,95.18,95.18,0,0,0,6.5,14.8,60.3,60.3,0,0,0,9.43,13,31.25,31.25,0,0,0,13.29,8.4,24.19,24.19,0,0,0,3.87.81c.66.06,1.31.13,2,.16l2,.06c1.35.07,2.7,0,4.05,0s2.69-.17,4-.36a27.72,27.72,0,0,0,7.75-2l.91-.4.87-.49a18.19,18.19,0,0,0,1.65-1.1,13,13,0,0,0,2.71-2.87,13.6,13.6,0,0,0,2.15-7.62,21.89,21.89,0,0,0-1.54-8,22,22,0,0,1,2,8,14.18,14.18,0,0,1-1.93,8.05,13.88,13.88,0,0,1-2.77,3.2,17.44,17.44,0,0,1-1.72,1.24l-.9.56-.94.47a29.4,29.4,0,0,1-8,2.42,52.62,52.62,0,0,1-8.3.62H266.9c-.7,0-1.41-.07-2.12-.11a28.45,28.45,0,0,1-4.18-.77A33.45,33.45,0,0,1,246.19,365a58.39,58.39,0,0,1-10.09-13.33,98.38,98.38,0,0,1-6.89-15.15,135.53,135.53,0,0,1-7-32.39A129.87,129.87,0,0,1,223.36,271a92.67,92.67,0,0,1,4.28-16.09,55.19,55.19,0,0,1,7.86-14.78,24.7,24.7,0,0,1,6.27-5.82,15.88,15.88,0,0,1,8.29-2.44,19.82,19.82,0,0,1,8.31,2,35.37,35.37,0,0,1,7.07,4.51,73.32,73.32,0,0,1,11.34,12A106.31,106.31,0,0,1,285.78,264.16Z" transform="translate(-119.8 -23.36)"/><path class="cls-2" d="M242.22,261.21a30.11,30.11,0,0,1,13.25-4.09,23.72,23.72,0,0,1,7.11.58,23,23,0,0,1,6.66,2.8A30.4,30.4,0,0,1,279,271a58.25,58.25,0,0,1,5.36,13.1A77.31,77.31,0,0,1,287.73,312a65,65,0,0,1-2.39,14c-.31,1.15-.73,2.26-1.09,3.39s-.84,2.21-1.28,3.31a45.3,45.3,0,0,1-3.34,6.43l-1.2,1.86L277,339.25a65.41,65.41,0,0,0-7.77-7.57,37.28,37.28,0,0,0-4.37-3.1,13.71,13.71,0,0,0-4.74-1.88,4.78,4.78,0,0,0-3.37.55,4.54,4.54,0,0,0-.92.73,10.28,10.28,0,0,0-2.36,4.54c-.24.87-.43,1.77-.6,2.66s-.29,1.82-.35,2.74-.18,1.85-.2,2.77l-.09,2.79a40.31,40.31,0,0,1,0-11.24,11.83,11.83,0,0,1,2.31-5.44,6.44,6.44,0,0,1,1.17-1.1,7.78,7.78,0,0,1,1.45-.78,7.42,7.42,0,0,1,3.18-.37,15.58,15.58,0,0,1,5.72,1.79,33.75,33.75,0,0,1,4.91,3.07,66.2,66.2,0,0,1,8.56,7.59l-2.68.17a40.61,40.61,0,0,0,2.83-5.89c.38-1,.78-2.08,1.11-3.14s.68-2.13.93-3.21.56-2.16.79-3.25l.62-3.29c.28-2.22.62-4.43.69-6.66s.1-4.47.12-6.71c0-1.12-.13-2.23-.18-3.35s-.11-2.24-.28-3.35a94.65,94.65,0,0,0-2.61-13.21c-.63-2.17-1.18-4.37-2-6.45a55,55,0,0,0-2.66-6.09,33.79,33.79,0,0,0-3.61-5.49,26,26,0,0,0-4.72-4.48,21.88,21.88,0,0,0-12.36-4A32.51,32.51,0,0,0,242.22,261.21Z" transform="translate(-119.8 -23.36)"/><path class="cls-2" d="M586.14,50.12A149.08,149.08,0,0,0,543.61,31.2a216.3,216.3,0,0,0-46.07-7.27,280.6,280.6,0,0,0-46.64,1.5A319.12,319.12,0,0,0,405,34,306.59,306.59,0,0,0,360.88,49.2,240.74,240.74,0,0,0,320,71.58a167.65,167.65,0,0,0-18.26,14.5,115.63,115.63,0,0,0-15.59,17.28,78.71,78.71,0,0,0-11,20.42,59.62,59.62,0,0,0-3.46,22.84l.05,1-.66-.72a48.37,48.37,0,0,1-7.13-10.48,44.62,44.62,0,0,1-4.14-12,39.48,39.48,0,0,1-.64-6.33,36.58,36.58,0,0,1,.45-6.36,40,40,0,0,1,4.06-12l.78.51a68.52,68.52,0,0,0-5.79,9.21,51.46,51.46,0,0,0-4.07,10.06,25.62,25.62,0,0,0-.83,10.64,16.16,16.16,0,0,0,1.65,5,17.63,17.63,0,0,0,3.21,4.19l2.41,2.34-3-1.42a63.8,63.8,0,0,0-8.87-3.32,46.67,46.67,0,0,0-9.26-1.81,22.63,22.63,0,0,0-9.21.88,12.52,12.52,0,0,0-6.94,5.6l-.79-.94a41.78,41.78,0,0,1,9.39-1.92,38.34,38.34,0,0,1,9.57.25,30.09,30.09,0,0,1,9.17,2.9,28.81,28.81,0,0,1,7.73,5.74l1,1-1.4.24a140.8,140.8,0,0,0-25.72,6.78,100.6,100.6,0,0,0-23.5,12.23,77.81,77.81,0,0,0-10,8.62c-.8.76-1.48,1.63-2.22,2.44l-1.1,1.24c-.36.41-.68.86-1,1.3-.66.87-1.35,1.73-2,2.62l-1.82,2.76c-.63.9-1.13,1.88-1.67,2.84s-1.12,1.89-1.55,2.91l-1.37,3-.34.75-.28.77-.57,1.55-.56,1.55-.29.78-.22.79-.88,3.18a32.46,32.46,0,0,0-.71,3.22c-.21,1.09-.44,2.16-.62,3.25a90.49,90.49,0,0,0,.26,26.39,131.42,131.42,0,0,0,2.63,13l1.78,6.41,1.72,6.52c4.58,17.44,5.59,35.6,4.81,53.5-.08,4.5-.62,9-1,13.43l-.14,1.68-.21,1.66-.43,3.34c-.29,2.23-.54,4.45-.87,6.67-1.41,8.86-3,17.69-5.09,26.41A438.49,438.49,0,0,1,170,421.92l-2.32,6.3-2.43,6.27c-1.59,4.18-3.35,8.3-5,12.45-3.49,8.24-7.1,16.44-10.92,24.53s-7.81,16.12-12,24-8.45,15.77-13.11,23.49l-1.3-2.58h.38l.46,0c.31,0,.6,0,.92,0,.64-.08,1.27-.14,1.91-.23,1.27-.27,2.56-.43,3.82-.83a62,62,0,0,0,7.51-2.53,76.66,76.66,0,0,0,7.2-3.46c1.18-.64,2.36-1.25,3.53-1.91l3.4-2.15c1.12-.72,2.28-1.4,3.38-2.17l3.26-2.37,3.26-2.38c1.07-.81,2.08-1.7,3.13-2.55l3.11-2.58c1-.86,2.09-1.69,3.06-2.64l5.92-5.51,1.48-1.38,1.42-1.46,2.81-2.92c1.86-2,3.78-3.86,5.59-5.87l5.32-6.12c1.76-2.06,3.61-4,5.25-6.2l5-6.37,2.52-3.18,1.26-1.6,1.19-1.65,9.52-13.18,3.12-4.3.18,5.25A310.31,310.31,0,0,1,221,470.6a268.68,268.68,0,0,1-4.83,34.19c-1.23,5.64-2.67,11.24-4.39,16.77a134.84,134.84,0,0,1-6.26,16.23,86,86,0,0,1-8.83,15.1,63,63,0,0,1-12.23,12.73l-1.28-3.47c.67,0,1.53-.18,2.31-.31s1.59-.31,2.39-.5c1.59-.38,3.18-.81,4.75-1.33a82.23,82.23,0,0,0,9.25-3.65A108.06,108.06,0,0,0,219,546.13a142.56,142.56,0,0,0,15.35-13A187.83,187.83,0,0,0,248,518.3c4.32-5.17,8.24-10.66,12.09-16.19s7.35-11.31,10.66-17.19l2.51-4.4,2.37-4.48c.78-1.5,1.61-3,2.35-4.49l2.25-4.55,9-18.28-.2.85,3.54-1a65,65,0,0,0,12.28,14c1.18,1,2.42,2,3.7,2.95l3.79,2.94c2.56,1.92,5.09,3.89,7.68,5.77,10.29,7.62,20.81,14.92,31.63,21.74a300.44,300.44,0,0,0,33.49,18.53,166.59,166.59,0,0,0,17.68,7.07c1.51.49,3,1,4.52,1.46l4.58,1.17,2.3.59,2.32.4,4.64.79.2,0,.07,0a173.26,173.26,0,0,0,59.83,6,164.94,164.94,0,0,0,58.19-15,141.63,141.63,0,0,0,25.83-15.48l3-2.3c1-.77,1.93-1.61,2.9-2.41,2-1.59,3.77-3.32,5.61-5,.93-.83,1.8-1.74,2.68-2.64l2.62-2.7,2.5-2.83c.83-.93,1.66-1.87,2.43-2.87a106,106,0,0,0,15.59-25.63,100.41,100.41,0,0,0,4.85-14.21l.82-3.67.41-1.84.29-1.85.59-3.71.37-3.75a92.71,92.71,0,0,0-2.08-29.88,100,100,0,0,0-11.27-27.82c-1.25-2.2-2.65-4.22-4-6.44s-2.67-4.41-3.88-6.68a91.63,91.63,0,0,1-6.05-14.21,98.77,98.77,0,0,1-4.95-30.35l.06-3.86L578,303c.2-2.56.5-5.14.78-7.63q.81-7.53.92-15.13c.09-5.05-.14-10.11-.48-15.15s-1-10.07-1.9-15a162.75,162.75,0,0,0-21.21-56.5L553,188.49l4.36,4a119.29,119.29,0,0,1,24.49,31,104.59,104.59,0,0,1,11.84,37.64l-1.25-.23a121.17,121.17,0,0,0,7.39-20,134.08,134.08,0,0,0,4.1-20.92,108.12,108.12,0,0,0-3.28-42.28,96.9,96.9,0,0,0-20.76-36.91,133.29,133.29,0,0,0-33.45-26.37l-2-1.15,2.25.61a136.38,136.38,0,0,1,17,6,155.78,155.78,0,0,1,16.21,7.94,121.91,121.91,0,0,1,28.58,21.85,88.67,88.67,0,0,1,11.12,14.2c1.68,2.5,3,5.2,4.45,7.85l1.86,4.12.47,1,.39,1.06.77,2.12.78,2.12c.26.7.42,1.44.64,2.16l1.21,4.35c.55,3,1.3,5.89,1.56,8.89a96,96,0,0,1,.52,18l-.31-.1A103.91,103.91,0,0,0,637,204.77c.78-1.82,1.46-3.68,2.17-5.53s1.34-3.73,1.9-5.63a140,140,0,0,0,5.29-23.14,116.28,116.28,0,0,0-2.86-47.11l-.83-2.85c-.27-1-.53-1.91-.89-2.83l-2-5.59a118.18,118.18,0,0,0-5-10.75c-1.75-3.56-4-6.85-6-10.23-1.12-1.63-2.32-3.21-3.48-4.82l-1.75-2.4c-.62-.78-1.27-1.52-1.9-2.29A161.77,161.77,0,0,0,586.14,50.12Zm0,0a161.84,161.84,0,0,1,35.49,31.43c.63.76,1.28,1.51,1.9,2.28l1.76,2.4c1.16,1.61,2.37,3.19,3.48,4.83,2.09,3.37,4.32,6.66,6.08,10.22A114.7,114.7,0,0,1,639.92,112l2.05,5.59c.36.92.62,1.88.9,2.83l.83,2.86a116.49,116.49,0,0,1,2.95,47.19,140.73,140.73,0,0,1-5.26,23.19c-.56,1.9-1.26,3.76-1.89,5.64s-1.39,3.72-2.17,5.55a102.55,102.55,0,0,1-5.09,10.76l-.34.62,0-.71a96.11,96.11,0,0,0-.56-17.95c-.26-3-1-5.9-1.57-8.85l-1.21-4.32c-.22-.72-.38-1.45-.64-2.16l-.78-2.11-.77-2.11L626,177l-.46-1-1.86-4.09a89.78,89.78,0,0,0-4.45-7.81A87.79,87.79,0,0,0,608.15,150a121.65,121.65,0,0,0-28.5-21.71,154.55,154.55,0,0,0-16.16-7.88,137.4,137.4,0,0,0-17-5.9l.21-.54a135.27,135.27,0,0,1,33.71,26.39,97.69,97.69,0,0,1,21.1,37.14,109,109,0,0,1,3.51,42.66,135.59,135.59,0,0,1-4,21.13,122.06,122.06,0,0,1-7.39,20.24l-1,2-.28-2.26a103,103,0,0,0-11.84-37.08,117.59,117.59,0,0,0-24.31-30.47l1.29-1.06a164.49,164.49,0,0,1,21.69,57c.94,5,1.52,10.12,2,15.22s.62,10.22.55,15.34-.33,10.23-.86,15.33c-.27,2.56-.55,5-.74,7.55l-.19,3.77,0,3.77a96.45,96.45,0,0,0,5,29.62,89.31,89.31,0,0,0,6,13.82c1.19,2.21,2.43,4.39,3.8,6.49s2.82,4.28,4.09,6.49a102.63,102.63,0,0,1,11.69,28.49,96,96,0,0,1,2.28,30.74l-.37,3.85-.59,3.82-.29,1.92-.42,1.89-.82,3.78a101.82,101.82,0,0,1-4.93,14.66,108.79,108.79,0,0,1-15.91,26.42c-.77,1-1.62,2-2.48,3l-2.54,2.91-2.68,2.78c-.89.93-1.78,1.86-2.74,2.72-1.87,1.77-3.73,3.55-5.72,5.19-1,.82-1.94,1.69-3,2.48l-3,2.37A144.59,144.59,0,0,1,540.87,520a167.7,167.7,0,0,1-59.36,15.39,176.7,176.7,0,0,1-61.05-6l.27.06-4.86-.82-2.42-.41-2.38-.6-4.75-1.2c-1.56-.47-3.1-1-4.65-1.5a169.27,169.27,0,0,1-18.08-7.2,302.09,302.09,0,0,1-33.94-18.68c-10.92-6.86-21.53-14.2-31.9-21.85-2.61-1.89-5.15-3.86-7.73-5.79l-3.83-3c-1.26-1-2.57-2-3.83-3.06a68.35,68.35,0,0,1-13-14.84l3.54-1.05.26-.07-.46.92-9,18.31-2.26,4.59c-.75,1.53-1.59,3-2.38,4.55l-2.39,4.53-2.53,4.46c-3.34,6-7,11.76-10.79,17.47s-7.89,11.22-12.28,16.5A185.28,185.28,0,0,1,237.11,536a147.82,147.82,0,0,1-15.8,13.3,112.59,112.59,0,0,1-17.84,10.57,84,84,0,0,1-9.71,3.82c-1.66.54-3.35,1-5.06,1.4-.86.2-1.72.38-2.6.54s-1.71.28-2.75.36l-6.39.46,5.12-3.93a58.91,58.91,0,0,0,11.47-11.91A82.53,82.53,0,0,0,202,536.18a132.37,132.37,0,0,0,6.11-15.76q2.52-8.08,4.32-16.41a264.86,264.86,0,0,0,4.82-33.71,305,305,0,0,0,.92-34.05l3.3.95-9.63,13.27-1.2,1.66-1.28,1.6L206.84,457l-5.1,6.42c-1.65,2.18-3.53,4.18-5.31,6.26l-5.4,6.18c-1.84,2-3.79,4-5.68,5.94l-2.86,3-1.43,1.47-1.51,1.4-6,5.6c-1,1-2.07,1.81-3.13,2.69l-3.18,2.62c-1.06.87-2.1,1.77-3.19,2.6l-3.35,2.43-3.34,2.42c-1.13.79-2.33,1.49-3.49,2.24l-3.51,2.2c-1.2.68-2.43,1.32-3.65,2a80.93,80.93,0,0,1-7.52,3.58,64,64,0,0,1-7.95,2.67c-1.34.41-2.77.6-4.16.89a26,26,0,0,1-4.45.31l-2.8-.09,1.49-2.49c9.13-15.21,17.4-31.06,25.09-47.11,3.85-8,7.47-16.18,11-24.36,1.69-4.13,3.47-8.21,5.06-12.37l2.45-6.22,2.33-6.26a435.55,435.55,0,0,0,15.57-51.06c2.11-8.64,3.73-17.39,5.17-26.17.33-2.2.59-4.4.89-6.61l.43-3.3.22-1.66.15-1.66c.36-4.42.91-8.84,1-13.28.85-17.72-.07-35.66-4.5-52.85l-1.67-6.43-1.77-6.51a132.4,132.4,0,0,1-2.62-13.24,92.82,92.82,0,0,1-.14-27c.19-1.12.43-2.22.65-3.34a32.22,32.22,0,0,1,.75-3.31l.92-3.27.23-.81.3-.8.59-1.59.59-1.6.29-.79.36-.78,1.42-3.08c.45-1,1.08-2,1.61-3a31.66,31.66,0,0,1,1.74-2.92l1.88-2.83c.68-.91,1.38-1.79,2.07-2.69.36-.44.69-.91,1.06-1.33l1.13-1.27c.77-.83,1.47-1.71,2.3-2.49a76.87,76.87,0,0,1,10.3-8.77,101.52,101.52,0,0,1,23.94-12.34,142.18,142.18,0,0,1,26-6.74l-.41,1.24a27.2,27.2,0,0,0-7.31-5.48,28.78,28.78,0,0,0-8.73-2.81,38.08,38.08,0,0,0-9.24-.28,41.23,41.23,0,0,0-9.06,1.81l-1.67.55.88-1.5a13.83,13.83,0,0,1,7.66-6.14,24,24,0,0,1,9.72-.9,48.46,48.46,0,0,1,9.5,1.9,65.23,65.23,0,0,1,9,3.43l-.64.92a18.85,18.85,0,0,1-3.42-4.5,17.23,17.23,0,0,1-1.73-5.37,26.57,26.57,0,0,1,.9-11.08A52.3,52.3,0,0,1,257.78,109a69.36,69.36,0,0,1,5.93-9.33l.79.51a38.93,38.93,0,0,0-4,11.73,36.87,36.87,0,0,0-.47,6.21,39,39,0,0,0,.61,6.19,43.36,43.36,0,0,0,4,11.79,48,48,0,0,0,6.95,10.34l-.61.26a60.56,60.56,0,0,1,3.58-23.07A79.58,79.58,0,0,1,285.66,103a116.37,116.37,0,0,1,15.7-17.34A169.87,169.87,0,0,1,319.7,71.17a240.62,240.62,0,0,1,41-22.34,305.65,305.65,0,0,1,44.21-15.12,319.73,319.73,0,0,1,45.94-8.52,280,280,0,0,1,46.68-1.42,215.68,215.68,0,0,1,46.08,7.35A148.92,148.92,0,0,1,586.14,50.12Z" transform="translate(-119.8 -23.36)"/></svg>