<svg id="low_poly" data-name="low poly" xmlns="http://www.w3.org/2000/svg" viewBox="0 0 395.54 632.08"><defs><style>.cls-1{fill:none;stroke:#1d1d1b;stroke-linejoin:round;}</style></defs><title>low_poly_langosta</title><polygon class="cls-1" points="130.97 20.15 138.31 32.18 139.42 18.86 130.97 20.15"/><polygon class="cls-1" points="138.31 32.18 145.66 32.18 139.42 18.86 138.31 32.18"/><polygon class="cls-1" points="138.31 32.18 125.83 37.23 130.97 20.15 138.31 32.18"/><polygon class="cls-1" points="139.42 18.91 129.04 17.53 130.97 20.2 139.42 18.91"/><polygon class="cls-1" points="138.31 32.18 134.23 50.36 125.83 37.23 138.31 32.18"/><polygon class="cls-1" points="134.23 50.36 144.47 50.82 138.31 32.18 134.23 50.36"/><polygon class="cls-1" points="144.47 50.82 145.66 32.18 138.31 32.18 144.47 50.82"/><polygon class="cls-1" points="134.23 50.36 121.6 46.87 125.83 37.23 134.23 50.36"/><polygon class="cls-1" points="134.23 50.36 138.31 76.44 144.47 50.82 134.23 50.36"/><polygon class="cls-1" points="121.6 46.87 113.43 53.48 134.23 50.36 121.6 46.87"/><polygon class="cls-1" points="113.43 53.48 126.47 64.41 134.23 50.36 113.43 53.48"/><polygon class="cls-1" points="126.47 64.41 138.31 76.44 134.23 50.36 126.47 64.41"/><polygon class="cls-1" points="113.43 53.48 114.35 60.64 126.47 64.41 113.43 53.48"/><polygon class="cls-1" points="126.47 64.41 125.83 83.05 138.31 76.44 126.47 64.41"/><polygon class="cls-1" points="114.35 60.64 108.66 70.38 126.47 64.41 114.35 60.64"/><polygon class="cls-1" points="108.66 70.38 125.83 83.05 126.47 64.41 108.66 70.38"/><polygon class="cls-1" points="108.66 70.38 99.11 79.56 114.53 88 108.66 70.38"/><polygon class="cls-1" points="114.53 88 125.83 83.05 108.66 70.38 114.53 88"/><polygon class="cls-1" points="125.83 83.05 129.04 102.88 138.31 76.44 125.83 83.05"/><polygon class="cls-1" points="114.53 88 116.37 109.86 125.83 83.05 114.53 88"/><polygon class="cls-1" points="116.37 109.86 129.04 102.88 125.83 83.05 116.37 109.86"/><polygon class="cls-1" points="99.11 79.56 93.41 90.94 114.53 88 99.11 79.56"/><polygon class="cls-1" points="93.41 90.94 101.13 105.27 114.53 88 93.41 90.94"/><polygon class="cls-1" points="101.13 105.27 116.37 109.86 114.53 88 101.13 105.27"/><polygon class="cls-1" points="116.37 109.86 121.6 116.83 129.04 102.88 116.37 109.86"/><polygon class="cls-1" points="103.97 7.94 130.97 7.2 90.29 26.67 103.97 7.94"/><polygon class="cls-1" points="90.29 26.67 120.18 27.77 130.97 7.2 90.29 26.67"/><polygon class="cls-1" points="103.97 7.94 84.23 14.92 90.29 26.67 103.97 7.94"/><polygon class="cls-1" points="120.18 27.77 123.83 34.56 116.37 48.7 120.18 27.77"/><polygon class="cls-1" points="116.37 48.7 101.13 37.23 120.18 27.77 116.37 48.7"/><polygon class="cls-1" points="101.13 37.23 90.29 26.67 120.18 27.77 101.13 37.23"/><polygon class="cls-1" points="101.13 37.23 90.29 50.17 116.37 48.7 101.13 37.23"/><polygon class="cls-1" points="90.29 50.17 108.75 56.23 116.37 48.7 90.29 50.17"/><polygon class="cls-1" points="108.75 56.23 110.63 64.96 99.11 61.56 108.75 56.23"/><polygon class="cls-1" points="99.11 61.56 90.29 50.17 108.75 56.23 99.11 61.56"/><polygon class="cls-1" points="99.11 61.56 95.71 68.08 110.63 64.96 99.11 61.56"/><polygon class="cls-1" points="95.71 68.08 102.6 74.69 110.63 64.96 95.71 68.08"/><polygon class="cls-1" points="102.6 74.69 91.39 80.11 95.71 68.08 102.6 74.69"/><polygon class="cls-1" points="95.71 68.08 90.29 50.17 99.11 61.56 95.71 68.08"/><polygon class="cls-1" points="95.71 68.08 75.42 67.62 90.29 50.17 95.71 68.08"/><polygon class="cls-1" points="75.42 67.62 91.39 80.11 95.71 68.08 75.42 67.62"/><polygon class="cls-1" points="90.29 26.67 90.29 50.17 101.13 37.23 90.29 26.67"/><polygon class="cls-1" points="84.23 14.92 58.34 36.03 90.29 26.67 84.23 14.92"/><polygon class="cls-1" points="58.34 36.03 90.29 50.17 90.29 26.67 58.34 36.03"/><polygon class="cls-1" points="75.42 67.62 58.34 36.03 90.29 50.17 75.42 67.62"/><polygon class="cls-1" points="75.42 67.62 41.99 60.95 58.34 36.03 75.42 67.62"/><polygon class="cls-1" points="75.42 67.62 53.44 90.94 41.99 60.95 75.42 67.62"/><polygon class="cls-1" points="53.44 90.94 27.73 100.25 41.99 60.95 53.44 90.94"/><polygon class="cls-1" points="53.44 90.94 75.42 96.45 75.42 67.62 53.44 90.94"/><polygon class="cls-1" points="75.42 96.45 91.39 80.11 75.42 67.62 75.42 96.45"/><polygon class="cls-1" points="91.39 80.11 94.7 84.52 102.6 74.69 91.39 80.11"/><polygon class="cls-1" points="94.7 84.52 75.42 96.45 91.39 80.11 94.7 84.52"/><polygon class="cls-1" points="75.42 96.45 91.39 98.47 93.41 90.94 75.42 96.45"/><polygon class="cls-1" points="94.7 84.52 93.41 90.94 75.42 96.45 94.7 84.52"/><polygon class="cls-1" points="91.39 98.47 101.13 105.27 93.41 90.94 91.39 98.47"/><polygon class="cls-1" points="116.37 109.86 101.59 124.55 121.6 116.83 116.37 109.86"/><polygon class="cls-1" points="101.59 124.55 119.4 132.44 121.6 116.83 101.59 124.55"/><polygon class="cls-1" points="101.13 105.27 101.59 124.55 116.37 109.86 101.13 105.27"/><polygon class="cls-1" points="53.44 90.94 49.77 124.64 27.73 100.25 53.44 90.94"/><polygon class="cls-1" points="49.77 124.64 75.42 118.37 53.44 90.94 49.77 124.64"/><polygon class="cls-1" points="75.42 118.37 91.39 98.47 75.42 96.45 75.42 118.37"/><polygon class="cls-1" points="75.42 118.37 101.13 105.27 91.39 98.47 75.42 118.37"/><polygon class="cls-1" points="75.42 118.37 101.59 124.55 101.13 105.27 75.42 118.37"/><polygon class="cls-1" points="101.59 124.55 105.24 158.77 119.4 132.44 101.59 124.55"/><polygon class="cls-1" points="101.59 124.55 66.91 148.48 105.24 158.77 101.59 124.55"/><polygon class="cls-1" points="75.42 118.37 66.91 148.48 101.59 124.55 75.42 118.37"/><polygon class="cls-1" points="49.77 124.64 66.91 148.48 75.42 118.37 49.77 124.64"/><polygon class="cls-1" points="49.77 124.64 33.36 177.38 66.91 148.48 49.77 124.64"/><polygon class="cls-1" points="27.73 100.25 22.1 146.28 49.77 124.64 27.73 100.25"/><polygon class="cls-1" points="22.1 146.28 33.36 177.38 49.77 124.64 22.1 146.28"/><polygon class="cls-1" points="33.36 177.38 105.24 158.77 66.91 148.48 33.36 177.38"/><polygon class="cls-1" points="32.04 212.08 105.24 158.77 33.36 177.38 32.04 212.08"/><polygon class="cls-1" points="105.24 158.77 69.3 193.66 32.04 212.08 105.24 158.77"/><polygon class="cls-1" points="75.42 96.45 75.42 118.37 53.44 90.94 75.42 96.45"/><polygon class="cls-1" points="254.28 10.78 245.19 4.36 250.7 0.5 254.28 10.78"/><polygon class="cls-1" points="254.28 10.78 269.98 5 250.7 0.5 254.28 10.78"/><polygon class="cls-1" points="269.98 5 259.7 18.59 254.28 10.78 269.98 5"/><polygon class="cls-1" points="259.7 18.59 263.46 26.39 271.18 23.55 259.7 18.59"/><polygon class="cls-1" points="271.18 23.55 269.98 5 259.7 18.59 271.18 23.55"/><polygon class="cls-1" points="271.18 23.55 293.58 18.59 269.98 5 271.18 23.55"/><polygon class="cls-1" points="271.18 23.55 268.79 34.38 263.46 26.39 271.18 23.55"/><polygon class="cls-1" points="271.18 23.55 280.91 30.07 268.79 34.38 271.18 23.55"/><polygon class="cls-1" points="268.79 34.38 269.98 39.52 280.91 30.07 268.79 34.38"/><polygon class="cls-1" points="280.91 30.07 293.58 18.59 271.18 23.55 280.91 30.07"/><polygon class="cls-1" points="280.91 30.07 311.67 34.38 293.58 18.59 280.91 30.07"/><polygon class="cls-1" points="280.91 30.07 274.85 45.49 269.98 39.52 280.91 30.07"/><polygon class="cls-1" points="274.85 45.49 282.38 56.05 286.24 42.65 274.85 45.49"/><polygon class="cls-1" points="286.24 42.65 280.91 30.07 274.85 45.49 286.24 42.65"/><polygon class="cls-1" points="286.24 42.65 303.41 45.49 280.91 30.07 286.24 42.65"/><polygon class="cls-1" points="303.41 45.49 311.67 34.38 280.91 30.07 303.41 45.49"/><polygon class="cls-1" points="303.41 45.49 315.99 65.69 311.67 34.38 303.41 45.49"/><polygon class="cls-1" points="282.38 56.05 296.7 55.04 286.24 42.65 282.38 56.05"/><polygon class="cls-1" points="296.7 55.04 303.41 45.49 286.24 42.65 296.7 55.04"/><polygon class="cls-1" points="282.38 56.05 285.87 65.69 296.7 55.04 282.38 56.05"/><polygon class="cls-1" points="296.7 55.04 296.7 55.04 306.25 66.89 285.87 65.69 296.7 55.04"/><polygon class="cls-1" points="303.41 45.49 315.34 74.87 306.25 66.89 303.41 45.49"/><polygon class="cls-1" points="303.41 45.49 296.7 55.04 306.25 66.89 303.41 45.49"/><polygon class="cls-1" points="315.34 74.87 315.99 65.69 303.41 45.49 315.34 74.87"/><polygon class="cls-1" points="315.99 65.69 329.57 56.19 311.67 34.38 315.99 65.69"/><polygon class="cls-1" points="329.57 56.19 331.32 84.33 315.99 65.69 329.57 56.19"/><polygon class="cls-1" points="315.34 74.87 307.63 87.64 306.25 66.89 315.34 74.87"/><polygon class="cls-1" points="315.34 74.87 331.32 84.33 315.99 65.69 315.34 74.87"/><polygon class="cls-1" points="307.63 87.64 331.32 84.33 315.34 74.87 307.63 87.64"/><polygon class="cls-1" points="285.87 65.69 296.7 81.85 306.25 66.89 285.87 65.69"/><polygon class="cls-1" points="296.7 81.85 307.63 87.64 306.25 66.89 296.7 81.85"/><polygon class="cls-1" points="307.63 87.64 304.32 98.75 296.7 81.85 307.63 87.64"/><polygon class="cls-1" points="304.32 98.75 329.57 105.54 307.63 87.64 304.32 98.75"/><polygon class="cls-1" points="304.32 98.75 310.8 111.88 329.57 105.54 304.32 98.75"/><polygon class="cls-1" points="329.57 105.54 331.32 84.33 307.63 87.64 329.57 105.54"/><polygon class="cls-1" points="331.32 84.33 344.54 82.95 329.57 56.19 331.32 84.33"/><polygon class="cls-1" points="331.32 84.33 343.07 100.67 344.54 82.95 331.32 84.33"/><polygon class="cls-1" points="329.57 105.54 343.07 100.67 331.32 84.33 329.57 105.54"/><polygon class="cls-1" points="247.24 6.47 243.45 14.27 254.28 14.79 247.24 6.47"/><polygon class="cls-1" points="254.28 14.79 245.19 30.52 243.45 14.27 254.28 14.79"/><polygon class="cls-1" points="245.19 30.52 261.02 26.48 254.28 14.79 245.19 30.52"/><polygon class="cls-1" points="261.02 26.48 254.28 37.78 245.19 30.52 261.02 26.48"/><polygon class="cls-1" points="245.19 30.52 253.1 54.4 254.28 37.78 245.19 30.52"/><polygon class="cls-1" points="254.28 37.78 267.32 37.44 261.02 26.48 254.28 37.78"/><polygon class="cls-1" points="267.32 37.44 264.81 52.07 254.28 37.78 267.32 37.44"/><polygon class="cls-1" points="253.1 54.4 264.81 52.07 254.28 37.78 253.1 54.4"/><polygon class="cls-1" points="264.81 52.07 277.67 51.34 267.32 37.44 264.81 52.07"/><polygon class="cls-1" points="277.67 51.34 282.38 56.05 270.84 67.59 277.67 51.34"/><polygon class="cls-1" points="264.81 52.07 270.84 67.59 277.67 51.34 264.81 52.07"/><polygon class="cls-1" points="253.1 54.4 270.84 67.59 264.81 52.07 253.1 54.4"/><polygon class="cls-1" points="253.1 54.4 263 77.44 270.84 67.59 253.1 54.4"/><polygon class="cls-1" points="270.84 67.59 285.87 65.69 282.38 56.05 270.84 67.59"/><polygon class="cls-1" points="270.84 67.59 281.92 82.91 285.87 65.69 270.84 67.59"/><polygon class="cls-1" points="263 77.44 281.92 82.91 270.84 67.59 263 77.44"/><polygon class="cls-1" points="281.92 82.91 296.7 81.85 285.87 65.69 281.92 82.91"/><polygon class="cls-1" points="281.92 82.91 285.38 99.27 296.7 81.85 281.92 82.91"/><polygon class="cls-1" points="285.38 99.27 304.32 98.75 296.7 81.85 285.38 99.27"/><polygon class="cls-1" points="281.92 82.91 270.84 94.68 263 77.44 281.92 82.91"/><polygon class="cls-1" points="270.84 94.68 285.38 99.27 281.92 82.91 270.84 94.68"/><polygon class="cls-1" points="285.38 99.27 281.4 115.43 270.84 94.68 285.38 99.27"/><polygon class="cls-1" points="281.4 115.43 297.93 116.04 285.38 99.27 281.4 115.43"/><polygon class="cls-1" points="297.93 116.04 304.32 98.75 285.38 99.27 297.93 116.04"/><polygon class="cls-1" points="297.93 116.04 310.8 111.88 304.32 98.75 297.93 116.04"/><polygon class="cls-1" points="297.93 116.04 304.36 124.06 310.8 111.88 297.93 116.04"/><polygon class="cls-1" points="281.4 115.43 288.81 125.83 297.93 116.04 281.4 115.43"/><polygon class="cls-1" points="288.81 125.83 287.64 139.15 304.36 124.06 288.81 125.83"/><polygon class="cls-1" points="288.81 125.83 297.93 116.04 304.36 124.06 288.81 125.83"/><polygon class="cls-1" points="343.07 100.67 360.61 125.83 344.54 82.95 343.07 100.67"/><polygon class="cls-1" points="304.36 124.06 297.93 154.24 287.64 139.15 304.36 124.06"/><polygon class="cls-1" points="297.93 154.24 305.03 166.6 309.19 151.54 297.93 154.24"/><polygon class="cls-1" points="309.19 151.54 304.36 124.06 297.93 154.24 309.19 151.54"/><polygon class="cls-1" points="304.36 124.06 331.32 146.16 310.8 111.88 304.36 124.06"/><polygon class="cls-1" points="304.34 124.49 319.45 126.8 310.78 112.31 304.34 124.49"/><polygon class="cls-1" points="319.47 126.37 329.57 105.54 310.8 111.88 319.47 126.37"/><polygon class="cls-1" points="319.47 126.37 360.61 125.83 329.57 105.54 319.47 126.37"/><polygon class="cls-1" points="329.57 105.54 343.07 100.67 360.61 125.83 329.57 105.54"/><polygon class="cls-1" points="331.32 146.16 360.61 125.83 319.47 126.37 331.32 146.16"/><polygon class="cls-1" points="309.19 151.54 317.84 172.23 305.03 166.6 309.19 151.54"/><polygon class="cls-1" points="317.84 172.23 315.19 182.64 305.03 166.6 317.84 172.23"/><polygon class="cls-1" points="309.19 151.54 331.32 146.16 304.36 124.06 309.19 151.54"/><polygon class="cls-1" points="317.84 172.23 331.32 146.16 309.19 151.54 317.84 172.23"/><polygon class="cls-1" points="317.84 172.23 343.71 168.93 331.32 146.16 317.84 172.23"/><polygon class="cls-1" points="331.32 146.16 368.57 159.07 360.61 125.83 331.32 146.16"/><polygon class="cls-1" points="343.71 168.93 368.57 159.07 331.32 146.16 343.71 168.93"/><polygon class="cls-1" points="343.71 168.93 329.57 184.97 317.84 172.23 343.71 168.93"/><polygon class="cls-1" points="329.57 184.97 315.19 182.64 317.84 172.23 329.57 184.97"/><polygon class="cls-1" points="329.57 184.97 336.98 204.31 315.19 182.64 329.57 184.97"/><polygon class="cls-1" points="329.57 184.97 361.96 186.19 343.71 168.93 329.57 184.97"/><polygon class="cls-1" points="361.96 186.19 368.57 159.07 343.71 168.93 361.96 186.19"/><polygon class="cls-1" points="361.96 186.19 377.63 196.47 368.57 159.07 361.96 186.19"/><polygon class="cls-1" points="336.98 204.31 361.96 186.19 329.57 184.97 336.98 204.31"/><polygon class="cls-1" points="336.98 204.31 363.79 203.09 361.96 186.19 336.98 204.31"/><polygon class="cls-1" points="363.79 203.09 377.63 196.47 361.96 186.19 363.79 203.09"/><polygon class="cls-1" points="363.79 203.09 363.79 222.31 378.48 208.23 363.79 203.09"/><polygon class="cls-1" points="363.79 203.09 377.63 196.47 378.48 208.23 363.79 203.09"/><polygon class="cls-1" points="336.98 204.31 363.79 222.31 363.79 203.09 336.98 204.31"/><polygon class="cls-1" points="105.24 158.77 94.7 179.33 69.3 193.66 105.24 158.77"/><polygon class="cls-1" points="32.04 212.08 45.12 222.31 69.3 193.66 32.04 212.08"/><polygon class="cls-1" points="69.3 193.66 67.89 238.83 45.12 222.31 69.3 193.66"/><polygon class="cls-1" points="69.3 193.66 79.4 209.45 67.89 238.83 69.3 193.66"/><polygon class="cls-1" points="22.1 146.28 23.82 205.35 33.36 177.38 22.1 146.28"/><polygon class="cls-1" points="33.36 177.38 32.04 212.08 23.82 205.35 33.36 177.38"/><polygon class="cls-1" points="32.04 212.08 35.94 246.85 45.12 222.31 32.04 212.08"/><polygon class="cls-1" points="67.89 238.83 35.94 246.85 45.12 222.31 67.89 238.83"/><polygon class="cls-1" points="79.4 209.45 124.27 236.02 67.89 238.83 79.4 209.45"/><polygon class="cls-1" points="67.89 238.83 91.39 262.83 124.27 236.02 67.89 238.83"/><polygon class="cls-1" points="91.39 262.83 106.45 294.97 124.27 236.02 91.39 262.83"/><polygon class="cls-1" points="124.27 236.02 134.18 253.46 106.45 294.97 124.27 236.02"/><polygon class="cls-1" points="91.39 262.83 61.28 258.79 106.45 294.97 91.39 262.83"/><polygon class="cls-1" points="35.94 246.85 61.28 258.79 67.89 238.83 35.94 246.85"/><polygon class="cls-1" points="67.89 238.83 91.39 262.83 61.28 258.79 67.89 238.83"/><polygon class="cls-1" points="140.43 259.89 143.36 317.74 112.88 299.01 140.43 259.89"/><polygon class="cls-1" points="140.43 259.89 155.12 273.3 143.36 317.74 140.43 259.89"/><polygon class="cls-1" points="336.98 204.31 320.25 218.2 343.71 233.63 336.98 204.31"/><polygon class="cls-1" points="363.79 222.31 343.71 233.63 336.98 204.31 363.79 222.31"/><polygon class="cls-1" points="363.79 222.31 360.98 236.2 343.71 233.63 363.79 222.31"/><polygon class="cls-1" points="343.71 233.63 344.45 258.61 360.98 236.2 343.71 233.63"/><polygon class="cls-1" points="360.98 236.2 361.96 246.49 344.45 258.61 360.98 236.2"/><polygon class="cls-1" points="320.25 218.2 297.93 230.51 343.71 233.63 320.25 218.2"/><polygon class="cls-1" points="297.93 230.51 344.45 258.61 343.71 233.63 297.93 230.51"/><polygon class="cls-1" points="297.93 230.51 288.07 233.63 282.01 245.2 297.93 230.51"/><polygon class="cls-1" points="282.01 245.2 318.74 273.11 297.93 230.51 282.01 245.2"/><polygon class="cls-1" points="318.74 273.11 344.45 258.61 297.93 230.51 318.74 273.11"/><polygon class="cls-1" points="318.74 273.11 327.74 273.11 344.45 258.61 318.74 273.11"/><polygon class="cls-1" points="282.01 245.2 295.72 297.42 272.19 253.7 282.01 245.2"/><polygon class="cls-1" points="327.74 273.11 295.72 297.42 318.74 273.11 327.74 273.11"/><polygon class="cls-1" points="282.01 245.2 295.72 297.42 318.74 273.11 282.01 245.2"/><polygon class="cls-1" points="267.87 260.7 252.26 270.3 263.65 258.61 267.87 260.7"/><polygon class="cls-1" points="267.87 260.7 264.01 316.57 252.26 270.3 267.87 260.7"/><polygon class="cls-1" points="267.87 260.7 290.29 302.19 264.01 316.57 267.87 260.7"/><polygon class="cls-1" points="189.82 149.58 196.68 171.62 194.72 171.62 189.82 149.58"/><polygon class="cls-1" points="196.68 171.62 197.41 182.64 194.72 171.62 196.68 171.62"/><polygon class="cls-1" points="196.68 171.62 200.72 188.27 198.03 188.27 197.41 182.64 196.68 171.62"/><polygon class="cls-1" points="200.72 188.27 201.82 194.51 198.03 188.27 200.72 188.27"/><polygon class="cls-1" points="198.03 188.27 199.37 202.1 201.82 194.51 198.03 188.27"/><polygon class="cls-1" points="201.82 194.51 202.56 207.61 199.37 202.1 201.82 194.51"/><polygon class="cls-1" points="199.37 202.1 198.7 209.45 202.56 207.61 199.37 202.1"/><polygon class="cls-1" points="193.25 149.58 200.02 163.66 198.73 164.34 193.25 149.58"/><polygon class="cls-1" points="200.02 163.66 205.37 174.07 198.73 164.34 200.02 163.66"/><polygon class="cls-1" points="198.73 164.34 206.35 179.95 205.37 174.07 198.73 164.34"/><polygon class="cls-1" points="205.37 174.07 209.78 183.25 206.35 179.95 205.37 174.07"/><polygon class="cls-1" points="206.35 179.95 208.07 188.27 209.78 183.25 206.35 179.95"/><polygon class="cls-1" points="209.78 183.25 210.39 199.9 208.07 188.27 209.78 183.25"/><polygon class="cls-1" points="208.07 188.27 205.37 198.43 210.39 199.9 208.07 188.27"/><polygon class="cls-1" points="205.37 198.43 202.56 207.61 210.39 199.9 205.37 198.43"/><polygon class="cls-1" points="210.39 199.9 210.39 212.76 202.56 207.61 210.39 199.9"/><polygon class="cls-1" points="210.39 212.76 216.15 207.61 210.39 199.9 210.39 212.76"/><polygon class="cls-1" points="199.37 155.16 200.02 163.66 202.19 167.89 199.37 155.16"/><polygon class="cls-1" points="193.25 156.38 200.72 176.88 200.72 171.62 193.25 156.38"/><polygon class="cls-1" points="200.72 171.62 200.72 168.41 202.87 172.81 200.72 171.62"/><polygon class="cls-1" points="202.87 172.81 202.87 179.21 200.72 171.62 202.87 172.81"/><polygon class="cls-1" points="200.72 171.62 200.72 176.88 202.87 179.21 200.72 171.62"/><polygon class="cls-1" points="200.72 176.88 201.82 187.9 202.87 179.21 200.72 176.88"/><polygon class="cls-1" points="202.87 179.21 206.05 185.09 202.28 184.11 202.87 179.21"/><polygon class="cls-1" points="202.28 184.11 204.16 187.9 201.82 187.9 202.28 184.11"/><polygon class="cls-1" points="206.05 185.09 207.51 190.37 206.53 194.09 206.05 185.09"/><polygon class="cls-1" points="204.16 187.9 205.37 198.43 201.82 187.9 204.16 187.9"/><polygon class="cls-1" points="201.82 187.9 202.56 207.61 205.37 198.43 201.82 187.9"/><polygon class="cls-1" points="202.28 184.11 205.48 189.1 206.05 185.09 202.28 184.11"/><polygon class="cls-1" points="205.48 189.1 206.53 194.09 206.05 185.09 205.48 189.1"/><polygon class="cls-1" points="198.7 209.45 197.68 219.9 202.56 207.61 198.7 209.45"/><polygon class="cls-1" points="197.68 219.9 210.39 212.76 202.56 207.61 197.68 219.9"/><polygon class="cls-1" points="216.15 207.61 217.05 222.43 210.39 212.76 216.15 207.61"/><polygon class="cls-1" points="197.68 219.9 207.91 236.34 210.39 212.76 197.68 219.9"/><polygon class="cls-1" points="207.91 236.34 217.05 222.43 210.39 212.76 207.91 236.34"/><polygon class="cls-1" points="217.05 222.43 220.68 229.22 207.91 236.34 217.05 222.43"/><polygon class="cls-1" points="197.68 219.9 197.29 245.93 207.91 236.34 197.68 219.9"/><polygon class="cls-1" points="197.68 219.9 187.38 233.2 193.67 233.2 197.68 219.9"/><polygon class="cls-1" points="193.67 233.2 194.91 239.38 197.68 219.9 193.67 233.2"/><polygon class="cls-1" points="194.91 239.38 197.29 245.93 197.68 219.9 194.91 239.38"/><polygon class="cls-1" points="194.91 239.38 192.53 250.71 197.29 245.93 194.91 239.38"/><polygon class="cls-1" points="193.67 233.2 190.31 241.04 194.91 239.38 193.67 233.2"/><polygon class="cls-1" points="190.31 241.04 192.53 250.71 194.91 239.38 190.31 241.04"/><polygon class="cls-1" points="187.38 233.2 190.38 241.34 193.67 233.2 187.38 233.2"/><polygon class="cls-1" points="207.91 236.34 216.15 237 220.68 229.22 207.91 236.34"/><polygon class="cls-1" points="216.15 237 219.82 239.81 220.68 229.22 216.15 237"/><polygon class="cls-1" points="220.68 229.22 224.72 234.52 219.82 239.81 220.68 229.22"/><polygon class="cls-1" points="224.72 234.52 236.9 242.08 219.82 239.81 224.72 234.52"/><polygon class="cls-1" points="207.91 236.34 208.25 258.36 197.29 245.93 207.91 236.34"/><polygon class="cls-1" points="208.25 258.36 216.15 237 207.91 236.34 208.25 258.36"/><polygon class="cls-1" points="208.25 258.36 219.82 239.81 216.15 237 208.25 258.36"/><polygon class="cls-1" points="219.82 239.81 226.19 250.28 219.51 250.28 219.82 239.81"/><polygon class="cls-1" points="219.51 250.28 208.25 258.36 219.82 239.81 219.51 250.28"/><polygon class="cls-1" points="226.19 250.28 236.9 242.08 219.82 239.81 226.19 250.28"/><polygon class="cls-1" points="197.29 245.93 194.91 258.91 192.53 250.71 197.29 245.93"/><polygon class="cls-1" points="190.31 241.04 185.97 252.42 192.53 250.71 190.31 241.04"/><polygon class="cls-1" points="185.97 252.42 194.91 258.91 192.53 250.71 185.97 252.42"/><polygon class="cls-1" points="194.91 258.91 208.25 258.36 197.29 245.93 194.91 258.91"/><polygon class="cls-1" points="187.38 233.2 175.62 237.27 190.31 241.04 187.38 233.2"/><polygon class="cls-1" points="175.62 237.27 172.56 245.05 190.31 241.04 175.62 237.27"/><polygon class="cls-1" points="187.38 233.2 178.19 224.94 178.56 230.88 187.38 233.2"/><polygon class="cls-1" points="178.19 224.94 174.22 226.55 178.56 230.88 178.19 224.94"/><polygon class="cls-1" points="178.56 230.88 175.62 237.27 187.38 233.2 178.56 230.88"/><polyline class="cls-1" points="174.22 226.55 175.62 237.27 178.56 230.88"/><polygon class="cls-1" points="197.68 219.9 192.15 206.33 198.7 209.45 197.68 219.9"/><polygon class="cls-1" points="192.15 206.33 187.68 215.39 197.68 219.9 192.15 206.33"/><polygon class="cls-1" points="187.68 215.39 187.38 233.2 197.68 219.9 187.68 215.39"/><polygon class="cls-1" points="187.71 215.39 178.22 224.94 187.41 233.2 187.71 215.39"/><polygon class="cls-1" points="192.15 206.33 182.17 197.15 187.68 215.39 192.15 206.33"/><polygon class="cls-1" points="182.17 197.15 180.28 214.41 187.68 215.39 182.17 197.15"/><polygon class="cls-1" points="180.28 214.41 178.19 224.94 187.68 215.39 180.28 214.41"/><polygon class="cls-1" points="216.15 207.61 224.72 212.76 217.05 222.43 216.15 207.61"/><polygon class="cls-1" points="224.72 212.76 231.51 233.57 217.05 222.43 224.72 212.76"/><polygon class="cls-1" points="220.68 229.22 231.51 233.57 217.05 222.43 220.68 229.22"/><polygon class="cls-1" points="224.72 234.52 231.51 233.57 220.68 229.22 224.72 234.52"/><polygon class="cls-1" points="231.51 233.57 236.9 242.08 224.72 234.52 231.51 233.57"/><polygon class="cls-1" points="236.9 242.08 236.9 224.55 231.51 233.57 236.9 242.08"/><polygon class="cls-1" points="236.9 224.55 231.88 226.55 231.51 233.57 236.9 224.55"/><polygon class="cls-1" points="224.72 212.76 231.88 226.55 231.51 233.57 224.72 212.76"/><polygon class="cls-1" points="224.72 212.76 233.65 211.59 231.88 226.55 224.72 212.76"/><polygon class="cls-1" points="182.17 197.15 176.05 197.15 180.28 214.41 182.17 197.15"/><polygon class="cls-1" points="176.05 197.15 173.02 208.06 180.28 214.41 176.05 197.15"/><polygon class="cls-1" points="233.65 211.59 236.28 197.15 224.72 198.83 233.65 211.59"/><polygon class="cls-1" points="224.72 198.83 224.72 212.76 233.65 211.59 224.72 198.83"/><polygon class="cls-1" points="224.72 198.83 216.15 207.61 224.72 212.76 224.72 198.83"/><polygon class="cls-1" points="194.91 258.91 187.16 263.84 185.97 252.42 194.91 258.91"/><polygon class="cls-1" points="226.19 250.28 222.27 257.56 219.51 250.28 226.19 250.28"/><polygon class="cls-1" points="172.56 245.05 185.97 252.42 190.31 241.04 172.56 245.05"/><polygon class="cls-1" points="176.05 197.15 173.02 208.06 167.51 203.24 176.05 197.15"/><polygon class="cls-1" points="187.16 263.84 192.15 325.02 207.91 297.35 187.16 263.84"/><polygon class="cls-1" points="194.91 258.91 207.91 297.35 187.16 263.84 194.91 258.91"/><polygon class="cls-1" points="208.25 258.36 207.91 297.35 194.91 258.91 208.25 258.36"/><polygon class="cls-1" points="192.15 325.02 207.91 353.67 207.91 297.35 192.15 325.02"/><polygon class="cls-1" points="208.25 258.36 220.68 308.13 207.91 297.35 208.25 258.36"/><polygon class="cls-1" points="220.68 308.13 207.91 353.67 207.91 297.35 220.68 308.13"/><polygon class="cls-1" points="187.16 263.84 162.09 341.79 192.15 325.02 187.16 263.84"/><polygon class="cls-1" points="207.91 353.67 178.56 353.67 192.15 325.02 207.91 353.67"/><polygon class="cls-1" points="178.56 353.67 162.09 341.79 192.15 325.02 178.56 353.67"/><polygon class="cls-1" points="222.27 257.56 208.25 258.36 219.51 250.28 222.27 257.56"/><polygon class="cls-1" points="222.27 257.56 233.65 306.17 208.25 258.36 222.27 257.56"/><polygon class="cls-1" points="220.68 308.13 233.65 306.17 208.25 258.36 220.68 308.13"/><polygon class="cls-1" points="233.65 306.17 230.81 351.53 220.68 308.13 233.65 306.17"/><polygon class="cls-1" points="207.91 353.67 230.81 351.53 220.68 308.13 207.91 353.67"/><polygon class="cls-1" points="172.56 245.05 155.12 273.3 185.97 252.42 172.56 245.05"/><path class="cls-1" d="M509.35,318.73" transform="translate(-354.23 -45.44)"/><polygon class="cls-1" points="185.97 252.42 162.09 287.8 187.16 263.84 185.97 252.42"/><polygon class="cls-1" points="162.09 287.8 162.09 341.79 187.16 263.84 162.09 287.8"/><polygon class="cls-1" points="155.12 273.3 162.09 287.8 185.97 252.42 155.12 273.3"/><polygon class="cls-1" points="162.09 341.79 143.36 317.74 155.12 273.3 162.09 341.79"/><polygon class="cls-1" points="162.09 287.8 155.12 273.3 162.09 341.79 162.09 287.8"/><polygon class="cls-1" points="236.9 242.08 252.26 270.3 226.19 250.28 236.9 242.08"/><polygon class="cls-1" points="226.19 250.28 242.96 291.66 252.26 270.3 226.19 250.28"/><polygon class="cls-1" points="242.96 291.66 264.01 316.57 252.26 270.3 242.96 291.66"/><polygon class="cls-1" points="222.27 257.56 242.96 291.66 226.19 250.28 222.27 257.56"/><polygon class="cls-1" points="233.65 306.17 242.96 291.66 222.27 257.56 233.65 306.17"/><polygon class="cls-1" points="264.01 316.57 233.65 306.17 242.96 291.66 264.01 316.57"/><polygon class="cls-1" points="264.01 316.57 245.47 346.57 233.65 306.17 264.01 316.57"/><polygon class="cls-1" points="230.81 351.53 245.47 346.57 233.65 306.17 230.81 351.53"/><polygon class="cls-1" points="167.51 203.24 123.85 268.93 173.02 208.06 167.51 203.24"/><polygon class="cls-1" points="123.85 268.93 73.64 345.1 119.4 289.75 123.85 268.93"/><polygon class="cls-1" points="119.4 289.75 173.02 208.06 123.85 268.93 119.4 289.75"/><polygon class="cls-1" points="119.4 289.75 49.03 390.15 73.64 345.1 119.4 289.75"/><polygon class="cls-1" points="73.64 345.1 38.26 400.68 49.03 390.15 73.64 345.1"/><polygon class="cls-1" points="38.26 400.68 0.5 475.12 49.03 390.15 38.26 400.68"/><polygon class="cls-1" points="236.28 197.15 246.48 206.33 233.65 211.59 236.28 197.15"/><polygon class="cls-1" points="246.48 206.33 291.25 288.81 239.94 209.01 246.48 206.33"/><polygon class="cls-1" points="239.94 209.01 312.62 343.51 291.25 288.81 239.94 209.01"/><polygon class="cls-1" points="291.25 288.81 340.78 384.03 312.62 343.51 291.25 288.81"/><polygon class="cls-1" points="312.62 343.51 362.08 435.08 340.78 384.03 312.62 343.51"/><path class="cls-1" d="M497.59,363.17" transform="translate(-354.23 -45.44)"/><polygon class="cls-1" points="143.36 317.74 140.43 350.79 162.09 341.79 143.36 317.74"/><polygon class="cls-1" points="162.09 341.79 140.43 408.64 138.41 378.7 162.09 341.79"/><polygon class="cls-1" points="140.43 350.79 138.41 378.7 162.09 341.79 140.43 350.79"/><polygon class="cls-1" points="178.56 353.67 194.23 410.29 207.91 353.67 178.56 353.67"/><polygon class="cls-1" points="230.81 351.53 217.37 408.64 207.91 353.67 230.81 351.53"/><polygon class="cls-1" points="207.91 353.67 194.23 410.29 217.37 408.64 207.91 353.67"/><polygon class="cls-1" points="194.23 410.29 158.61 407.9 178.56 353.67 194.23 410.29"/><polygon class="cls-1" points="162.09 341.79 158.61 407.9 178.56 353.67 162.09 341.79"/><polygon class="cls-1" points="140.43 408.64 158.61 407.9 162.09 341.79 140.43 408.64"/><polygon class="cls-1" points="194.23 410.29 192.15 443.35 217.37 408.64 194.23 410.29"/><polygon class="cls-1" points="217.37 408.64 219.36 443.35 192.15 443.35 217.37 408.64"/><polygon class="cls-1" points="158.61 407.9 192.15 443.35 194.23 410.29 158.61 407.9"/><polygon class="cls-1" points="158.61 407.9 153.65 446.83 192.15 443.35 158.61 407.9"/><polygon class="cls-1" points="140.43 408.64 153.65 446.83 158.61 407.9 140.43 408.64"/><polygon class="cls-1" points="245.47 346.57 267.87 386.6 264.01 316.57 245.47 346.57"/><polygon class="cls-1" points="267.87 386.6 237.39 404.96 245.47 346.57 267.87 386.6"/><polygon class="cls-1" points="217.37 408.64 237.39 404.96 230.81 351.53 217.37 408.64"/><polygon class="cls-1" points="245.47 346.57 230.81 351.53 237.39 404.96 245.47 346.57"/><polygon class="cls-1" points="237.39 404.96 219.36 443.35 217.37 408.64 237.39 404.96"/><polygon class="cls-1" points="267.87 386.6 261.26 430.49 237.39 404.96 267.87 386.6"/><polygon class="cls-1" points="261.26 430.49 253.36 444.63 237.39 404.96 261.26 430.49"/><polygon class="cls-1" points="219.36 443.35 253.36 444.63 237.39 404.96 219.36 443.35"/><polygon class="cls-1" points="153.65 446.83 154.57 459.32 164.73 449.28 153.65 446.83"/><polygon class="cls-1" points="164.73 449.28 192.15 443.35 153.65 446.83 164.73 449.28"/><polygon class="cls-1" points="164.73 449.28 207.91 450.14 192.15 443.35 164.73 449.28"/><polygon class="cls-1" points="192.15 443.35 219.36 443.35 207.91 450.14 192.15 443.35"/><polygon class="cls-1" points="219.36 443.35 244.06 447.69 207.91 450.14 219.36 443.35"/><polygon class="cls-1" points="253.36 444.63 244.06 447.69 219.36 443.35 253.36 444.63"/><polygon class="cls-1" points="253.36 444.63 254.59 462.02 244.06 447.69 253.36 444.63"/><polygon class="cls-1" points="154.57 459.32 172.56 453.08 164.73 449.28 154.57 459.32"/><polygon class="cls-1" points="172.56 453.08 198.33 455.83 164.73 449.28 172.56 453.08"/><polygon class="cls-1" points="164.73 449.28 207.91 450.14 198.33 455.83 164.73 449.28"/><polygon class="cls-1" points="198.33 455.83 231.08 454.24 207.91 450.14 198.33 455.83"/><polygon class="cls-1" points="231.08 454.24 244.06 447.69 207.91 450.14 231.08 454.24"/><polygon class="cls-1" points="231.08 454.24 242.04 453.69 244.06 447.69 231.08 454.24"/><polygon class="cls-1" points="242.04 453.69 249.94 468.44 244.06 447.69 242.04 453.69"/><polygon class="cls-1" points="254.59 462.02 249.94 468.44 244.06 447.69 254.59 462.02"/><polygon class="cls-1" points="154.57 459.32 154.57 466.67 176.42 477.56 154.57 459.32"/><polygon class="cls-1" points="172.56 453.08 176.42 477.56 154.57 459.32 172.56 453.08"/><polygon class="cls-1" points="198.33 455.83 176.42 477.56 172.56 453.08 198.33 455.83"/><polygon class="cls-1" points="198.33 455.83 207.91 481.48 186.32 480.87 198.33 455.83"/><polygon class="cls-1" points="176.42 477.56 186.32 480.87 198.33 455.83 176.42 477.56"/><polygon class="cls-1" points="207.91 481.48 231.08 454.24 198.33 455.83 207.91 481.48"/><polygon class="cls-1" points="231.08 454.24 231.08 479.03 207.91 481.48 231.08 454.24"/><polygon class="cls-1" points="242.04 453.69 231.08 479.03 231.08 454.24 242.04 453.69"/><polygon class="cls-1" points="231.08 479.03 249.94 468.44 242.04 453.69 231.08 479.03"/><polygon class="cls-1" points="154.57 466.67 156.89 486.99 176.42 477.56 154.57 466.67"/><polygon class="cls-1" points="176.42 477.56 180.89 489.81 186.32 480.87 176.42 477.56"/><polygon class="cls-1" points="156.89 486.99 180.89 489.81 176.42 477.56 156.89 486.99"/><polygon class="cls-1" points="186.32 480.87 199.86 491.28 180.89 489.81 186.32 480.87"/><polygon class="cls-1" points="207.91 481.48 199.86 491.28 186.32 480.87 207.91 481.48"/><polygon class="cls-1" points="207.91 481.48 219.36 489.81 231.08 479.03 207.91 481.48"/><polygon class="cls-1" points="199.86 491.28 219.36 489.81 207.91 481.48 199.86 491.28"/><polygon class="cls-1" points="231.08 479.03 247 486.07 249.94 468.44 231.08 479.03"/><polygon class="cls-1" points="219.36 489.81 247 486.07 231.08 479.03 219.36 489.81"/><polygon class="cls-1" points="249.94 468.44 254.59 484.42 247 486.07 249.94 468.44"/><polygon class="cls-1" points="254.59 462.02 254.59 484.42 249.94 468.44 254.59 462.02"/><polygon class="cls-1" points="156.89 486.99 180.89 500.82 180.89 489.81 156.89 486.99"/><polygon class="cls-1" points="180.89 500.82 199.86 491.28 180.89 489.81 180.89 500.82"/><polygon class="cls-1" points="180.89 500.82 199.37 505.23 199.86 491.28 180.89 500.82"/><polygon class="cls-1" points="199.37 505.23 221.9 500.82 199.86 491.28 199.37 505.23"/><polygon class="cls-1" points="219.36 489.81 221.9 500.82 199.86 491.28 219.36 489.81"/><polygon class="cls-1" points="221.9 500.82 240.51 495.32 219.36 489.81 221.9 500.82"/><polygon class="cls-1" points="254.59 484.42 240.51 495.32 219.36 489.81 254.59 484.42"/><polygon class="cls-1" points="254.59 484.42 255.69 489.81 240.51 495.32 254.59 484.42"/><polygon class="cls-1" points="156.89 486.99 156.89 505.85 180.89 500.82 156.89 486.99"/><polygon class="cls-1" points="156.89 505.85 159.59 519.8 180.89 500.82 156.89 505.85"/><polygon class="cls-1" points="159.59 519.8 183.46 531.43 180.89 500.82 159.59 519.8"/><polygon class="cls-1" points="199.37 505.23 199.86 534.37 180.89 500.82 199.37 505.23"/><polygon class="cls-1" points="183.46 531.43 199.86 534.37 180.89 500.82 183.46 531.43"/><polygon class="cls-1" points="199.37 505.23 218.47 532.66 199.86 534.37 199.37 505.23"/><polygon class="cls-1" points="221.9 500.82 218.47 532.66 199.37 505.23 221.9 500.82"/><polygon class="cls-1" points="221.9 500.82 235.86 527.51 218.47 532.66 221.9 500.82"/><polygon class="cls-1" points="240.51 495.32 235.86 527.51 221.9 500.82 240.51 495.32"/><polygon class="cls-1" points="255.69 489.81 256.3 503.4 240.51 495.32 255.69 489.81"/><polygon class="cls-1" points="256.3 503.4 253.24 518.7 240.51 495.32 256.3 503.4"/><polygon class="cls-1" points="235.86 527.51 253.24 518.7 240.51 495.32 235.86 527.51"/><polygon class="cls-1" points="159.59 519.8 156.89 538.41 183.46 531.43 159.59 519.8"/><polygon class="cls-1" points="156.89 538.41 162.55 554.45 183.46 531.43 156.89 538.41"/><polygon class="cls-1" points="183.46 531.43 185.45 564 162.55 554.45 183.46 531.43"/><polygon class="cls-1" points="199.86 534.37 185.45 564 183.46 531.43 199.86 534.37"/><polygon class="cls-1" points="199.86 534.37 201.58 568.96 185.45 564 199.86 534.37"/><polygon class="cls-1" points="218.47 532.66 201.58 568.96 199.86 534.37 218.47 532.66"/><polygon class="cls-1" points="201.58 568.96 231.21 562.34 218.47 532.66 201.58 568.96"/><polygon class="cls-1" points="235.86 527.51 231.21 562.34 218.47 532.66 235.86 527.51"/><polygon class="cls-1" points="231.21 562.34 252.26 553.16 235.86 527.51 231.21 562.34"/><polygon class="cls-1" points="253.24 518.7 258.69 534.37 235.86 527.51 253.24 518.7"/><polygon class="cls-1" points="258.69 534.37 252.26 553.16 235.86 527.51 258.69 534.37"/><path class="cls-1" d="M516.78,599.88" transform="translate(-354.23 -45.44)"/><polygon class="cls-1" points="162.55 554.45 158.24 569.26 179.54 577.95 162.55 554.45"/><polygon class="cls-1" points="158.24 569.26 165.4 586.28 179.54 577.95 158.24 569.26"/><polygon class="cls-1" points="165.4 586.28 177.22 592.4 179.54 577.95 165.4 586.28"/><polygon class="cls-1" points="185.45 564 179.54 577.95 162.55 554.45 185.45 564"/><polygon class="cls-1" points="185.45 564 190.38 598.28 201.58 568.96 185.45 564"/><polygon class="cls-1" points="179.54 577.95 190.38 598.28 185.45 564 179.54 577.95"/><polygon class="cls-1" points="177.22 592.4 190.38 598.28 179.54 577.95 177.22 592.4"/><polygon class="cls-1" points="201.58 568.96 203.17 600.6 190.38 598.28 201.58 568.96"/><polygon class="cls-1" points="201.58 568.96 219.94 598.28 203.17 600.6 201.58 568.96"/><polygon class="cls-1" points="219.94 598.28 231.21 562.34 201.58 568.96 219.94 598.28"/><polygon class="cls-1" points="219.94 598.28 238.06 590.44 231.21 562.34 219.94 598.28"/><polygon class="cls-1" points="238.06 590.44 248.47 588.12 231.21 562.34 238.06 590.44"/><polygon class="cls-1" points="252.26 553.16 258.69 567.79 231.21 562.34 252.26 553.16"/><polygon class="cls-1" points="258.69 567.79 248.47 588.12 231.21 562.34 258.69 567.79"/><polygon class="cls-1" points="165.4 586.28 159.98 598.28 177.22 592.4 165.4 586.28"/><polygon class="cls-1" points="159.98 598.28 160.72 609.26 177.22 592.4 159.98 598.28"/><polygon class="cls-1" points="160.72 609.26 169.44 620.56 177.22 592.4 160.72 609.26"/><polygon class="cls-1" points="169.44 620.56 190.38 598.28 177.22 592.4 169.44 620.56"/><polygon class="cls-1" points="169.44 620.56 190.38 628.27 190.38 598.28 169.44 620.56"/><polygon class="cls-1" points="190.38 628.27 203.17 631.58 190.38 598.28 190.38 628.27"/><polygon class="cls-1" points="203.17 631.58 203.17 600.6 190.38 598.28 203.17 631.58"/><polygon class="cls-1" points="203.17 631.58 218.47 629.56 203.17 600.6 203.17 631.58"/><polygon class="cls-1" points="219.94 598.28 218.47 629.56 203.17 600.6 219.94 598.28"/><polygon class="cls-1" points="218.47 629.56 243.26 621.66 219.94 598.28 218.47 629.56"/><polygon class="cls-1" points="238.06 590.44 243.26 621.66 219.94 598.28 238.06 590.44"/><polygon class="cls-1" points="248.47 588.12 257.77 600.83 238.06 590.44 248.47 588.12"/><polygon class="cls-1" points="257.77 600.83 253.24 613.27 238.06 590.44 257.77 600.83"/><polygon class="cls-1" points="253.24 613.27 243.26 621.66 238.06 590.44 253.24 613.27"/><polygon class="cls-1" points="276.28 337.39 311.73 341.86 266.38 359.45 276.28 337.39"/><polygon class="cls-1" points="311.73 341.86 303.36 326.37 276.28 337.39 311.73 341.86"/><polygon class="cls-1" points="276.28 337.39 265.27 339.35 266.38 359.45 276.28 337.39"/><polygon class="cls-1" points="330.37 312.78 318.11 340.46 309.01 322.96 330.37 312.78"/><polygon class="cls-1" points="330.37 312.78 337.35 328.85 318.11 340.46 330.37 312.78"/><polygon class="cls-1" points="330.37 312.78 337.35 309.11 337.35 328.85 330.37 312.78"/><polygon class="cls-1" points="337.35 309.11 360.98 281.87 357.06 301.27 337.35 309.11"/><polygon class="cls-1" points="337.35 328.85 357.06 301.27 337.35 309.11 337.35 328.85"/><polygon class="cls-1" points="360.98 281.87 344.45 283.24 337.35 309.11 360.98 281.87"/><polygon class="cls-1" points="360.98 281.87 352.35 271.31 344.45 283.24 360.98 281.87"/><polygon class="cls-1" points="360.98 281.87 384.48 249.09 352.35 271.31 360.98 281.87"/><polygon class="cls-1" points="384.48 249.09 368.57 243.49 352.35 271.31 384.48 249.09"/><polygon class="cls-1" points="384.48 249.09 387.18 227.91 368.57 243.49 384.48 249.09"/><polygon class="cls-1" points="387.18 227.91 378.48 214.41 368.57 243.49 387.18 227.91"/><polygon class="cls-1" points="378.48 214.41 369.79 218.2 368.57 243.49 378.48 214.41"/><polygon class="cls-1" points="369.79 218.2 374.11 212.97 378.48 214.41 369.79 218.2"/><polygon class="cls-1" points="103.26 312.78 128.12 328.85 140.43 350.79 103.26 312.78"/><polygon class="cls-1" points="128.12 328.85 142.04 332.61 140.43 350.79 128.12 328.85"/><polygon class="cls-1" points="103.26 312.78 92.79 327.71 140.43 350.79 103.26 312.78"/><polygon class="cls-1" points="75.05 297.42 86.55 325.51 97.45 308.98 75.05 297.42"/><polygon class="cls-1" points="75.05 297.42 65.69 307.55 86.55 325.51 75.05 297.42"/><polygon class="cls-1" points="75.05 297.42 69.3 290.74 65.69 307.55 75.05 297.42"/><polygon class="cls-1" points="65.69 307.55 50.67 283.24 69.3 290.74 65.69 307.55"/><polygon class="cls-1" points="69.3 290.74 63.66 267.79 50.67 283.24 69.3 290.74"/><polygon class="cls-1" points="50.67 283.24 47.14 261.91 63.66 267.79 50.67 283.24"/><polygon class="cls-1" points="47.14 261.91 35.94 246.85 61.28 258.79 47.14 261.91"/><polygon class="cls-1" points="61.28 258.79 63.66 267.79 47.14 261.91 61.28 258.79"/><polygon class="cls-1" points="279.44 386.6 291.25 391.57 265.31 403.63 279.44 386.6"/><polygon class="cls-1" points="279.44 386.6 306.07 383.02 291.25 391.57 279.44 386.6"/><polygon class="cls-1" points="267.87 386.6 279.44 386.6 265.31 403.63 267.87 386.6"/><polygon class="cls-1" points="279.44 386.6 301.02 373.75 306.07 383.02 279.44 386.6"/><polygon class="cls-1" points="301.02 373.75 318.11 353.68 321.23 359.45 301.02 373.75"/><polygon class="cls-1" points="321.23 359.45 326.94 370.02 301.02 373.75 321.23 359.45"/><polyline class="cls-1" points="306.07 383.02 326.94 370.02 301.02 373.75"/><polygon class="cls-1" points="323.64 351.1 349.59 335.82 326.94 357.04 323.64 351.1"/><polygon class="cls-1" points="349.59 335.82 354.27 348.42 326.94 357.04 349.59 335.82"/><polygon class="cls-1" points="326.94 357.04 331.45 366.11 354.27 348.42 326.94 357.04"/><polygon class="cls-1" points="349.59 335.82 391 328.39 354.27 348.42 349.59 335.82"/><polygon class="cls-1" points="391 328.39 391 328.39 395.04 333.16 354.27 348.42 391 328.39"/><polyline class="cls-1" points="395.04 333.16 384.39 342.34 354.27 348.42"/><polygon class="cls-1" points="138.41 379.26 121.84 374.36 139.51 395.11 138.41 379.26"/><polygon class="cls-1" points="121.84 374.36 100.7 371.18 139.51 395.11 121.84 374.36"/><polygon class="cls-1" points="121.84 374.36 98.75 355.26 100.7 371.18 121.84 374.36"/><polygon class="cls-1" points="98.75 355.26 81.72 343.51 100.7 371.18 98.75 355.26"/><polygon class="cls-1" points="98.75 355.26 86.25 337.63 81.72 343.51 98.75 355.26"/><polygon class="cls-1" points="100.7 371.18 84.22 357.34 81.72 343.51 100.7 371.18"/><polygon class="cls-1" points="74.06 354.44 84.22 357.34 81.72 343.51 74.06 354.44"/><polygon class="cls-1" points="79.86 335.66 53.2 319.51 70.91 349.39 79.86 335.66"/><polygon class="cls-1" points="53.2 319.51 50.67 332.49 70.91 349.39 53.2 319.51"/><polygon class="cls-1" points="53.2 319.51 14.88 311.46 50.67 332.49 53.2 319.51"/><polygon class="cls-1" points="14.88 311.46 4.84 312.78 14.39 325.02 14.88 311.46"/><polygon class="cls-1" points="4.84 312.78 3.13 319.51 14.39 325.02 4.84 312.78"/><polygon class="cls-1" points="14.39 325.02 50.67 332.49 14.88 311.46 14.39 325.02"/><polygon class="cls-1" points="261.26 430.49 277.6 429.45 263.32 416.81 261.26 430.49"/><polygon class="cls-1" points="277.6 429.45 280.56 415.93 263.32 416.81 277.6 429.45"/><polygon class="cls-1" points="277.6 429.45 290.7 413.35 280.56 415.93 277.6 429.45"/><polygon class="cls-1" points="280.56 415.93 298.78 399.82 290.7 413.35 280.56 415.93"/><polygon class="cls-1" points="290.7 413.35 299.52 402.52 298.78 399.82 290.7 413.35"/><polygon class="cls-1" points="298.78 399.82 309.93 384.76 311.13 404.23 298.78 399.82"/><polygon class="cls-1" points="299.52 402.52 311.13 404.23 298.78 399.82 299.52 402.52"/><polygon class="cls-1" points="311.13 404.23 321.23 391.57 309.93 384.76 311.13 404.23"/><polygon class="cls-1" points="309.93 384.76 313.98 378.09 321.23 391.57 309.93 384.76"/><polygon class="cls-1" points="321.23 391.57 329.76 387.3 313.98 378.09 321.23 391.57"/><polygon class="cls-1" points="329.76 387.3 326.94 370.02 313.98 378.09 329.76 387.3"/><polygon class="cls-1" points="329.76 387.3 340.78 395.64 326.94 370.02 329.76 387.3"/><polygon class="cls-1" points="332.78 368.66 352.35 389.72 347.77 400.79 332.78 368.66"/><polygon class="cls-1" points="352.35 389.72 374.38 410.93 347.77 400.79 352.35 389.72"/><polygon class="cls-1" points="347.77 400.79 367.77 422.5 374.38 410.93 347.77 400.79"/><polygon class="cls-1" points="374.38 410.93 375.21 434.07 367.77 422.5 374.38 410.93"/><polygon class="cls-1" points="367.77 422.5 370.07 446.1 375.21 434.07 367.77 422.5"/><polygon class="cls-1" points="139.51 399.58 129.35 398.84 140.43 408.64 139.51 399.58"/><polygon class="cls-1" points="143.25 416.81 129.84 414.15 140.43 408.64 143.25 416.81"/><polygon class="cls-1" points="129.35 398.84 129.84 414.15 140.43 408.64 129.35 398.84"/><polygon class="cls-1" points="129.35 398.84 116.61 392.72 129.84 414.15 129.35 398.84"/><polygon class="cls-1" points="129.84 414.15 109.27 402.15 116.61 392.72 129.84 414.15"/><polygon class="cls-1" points="116.61 392.72 107.43 384.74 109.27 402.15 116.61 392.72"/><polygon class="cls-1" points="107.43 384.74 98.75 370.2 92.79 388.68 107.43 384.74"/><polygon class="cls-1" points="92.79 388.68 109.27 402.15 107.43 384.74 92.79 388.68"/><polygon class="cls-1" points="92.79 388.68 87.77 384.38 98.75 370.2 92.79 388.68"/><polygon class="cls-1" points="87.77 384.38 81.72 378.7 98.75 370.2 87.77 384.38"/><polygon class="cls-1" points="98.75 370.2 77.68 356.61 81.72 378.7 98.75 370.2"/><polygon class="cls-1" points="77.68 356.61 65.38 366.68 82.34 377.73 77.68 356.61"/><polygon class="cls-1" points="77.68 356.61 73.27 355.57 65.38 366.68 77.68 356.61"/><polygon class="cls-1" points="68.03 353.91 47.75 350.79 64.61 359.28 68.03 353.91"/><polygon class="cls-1" points="47.75 350.79 31.65 361.12 64.61 359.28 47.75 350.79"/><polygon class="cls-1" points="31.65 361.12 60.22 366.19 64.61 359.28 31.65 361.12"/><polygon class="cls-1" points="31.65 361.12 27.12 358.5 47.75 350.79 31.65 361.12"/><polygon class="cls-1" points="27.12 358.5 18.8 357.89 21.37 350.79 27.12 358.5"/><polygon class="cls-1" points="21.37 350.79 34.96 347 27.12 358.5 21.37 350.79"/><polygon class="cls-1" points="34.96 347 47.75 350.79 27.12 358.5 34.96 347"/><polygon class="cls-1" points="253.58 447.69 264.38 443.35 266.59 452.56 253.58 447.69"/><polygon class="cls-1" points="253.58 447.69 254.22 456.87 266.59 452.56 253.58 447.69"/><polygon class="cls-1" points="264.38 443.35 277.6 429.45 280.18 443.35 264.38 443.35"/><polygon class="cls-1" points="266.59 452.56 280.18 443.35 264.38 443.35 266.59 452.56"/><polygon class="cls-1" points="277.6 429.45 299.52 410.93 280.18 443.35 277.6 429.45"/><polygon class="cls-1" points="299.52 410.93 299.52 402.52 277.6 429.45 299.52 410.93"/><polygon class="cls-1" points="299.52 410.93 309.93 414.39 280.56 442.7 299.52 410.93"/><polygon class="cls-1" points="309.93 414.39 299.52 402.52 299.52 410.93 309.93 414.39"/><polygon class="cls-1" points="309.93 414.39 311.13 404.23 299.52 402.52 309.93 414.39"/><polygon class="cls-1" points="311.13 404.23 326.21 421.19 309.93 414.39 311.13 404.23"/><polygon class="cls-1" points="309.93 414.39 315.58 428.96 326.21 421.19 309.93 414.39"/><polygon class="cls-1" points="326.21 421.19 326.94 427.98 315.58 428.96 326.21 421.19"/><polygon class="cls-1" points="326.94 427.98 331.35 455.83 315.58 428.96 326.94 427.98"/><polygon class="cls-1" points="315.58 428.96 324.13 455.28 331.35 455.83 315.58 428.96"/><polygon class="cls-1" points="324.13 455.28 325.11 481.48 331.35 455.83 324.13 455.28"/><polygon class="cls-1" points="331.35 455.83 336 474.5 325.11 481.48 331.35 455.83"/><polygon class="cls-1" points="336 474.5 332.78 482.83 325.11 481.48 336 474.5"/><polygon class="cls-1" points="144.11 419.29 119.4 413.35 149.52 435.63 144.11 419.29"/><polygon class="cls-1" points="149.52 435.63 101.03 416.81 119.4 413.35 149.52 435.63"/><polygon class="cls-1" points="101.03 416.81 92.13 412.72 93.26 398.84 101.03 416.81"/><polygon class="cls-1" points="93.26 398.84 119.4 413.35 101.03 416.81 93.26 398.84"/><polygon class="cls-1" points="93.26 398.84 70.91 390.15 92.13 412.72 93.26 398.84"/><polygon class="cls-1" points="92.13 412.72 66.53 398.84 70.91 390.15 92.13 412.72"/><polygon class="cls-1" points="70.91 390.15 62.93 391.57 66.53 398.84 70.91 390.15"/><polygon class="cls-1" points="62.93 391.57 43.02 400.68 66.53 398.84 62.93 391.57"/><polygon class="cls-1" points="43.02 400.68 37.16 410.93 66.53 398.84 43.02 400.68"/><polygon class="cls-1" points="37.16 402.52 21.37 407.83 32.15 412.72 37.16 402.52"/><polygon class="cls-1" points="21.37 407.83 22.65 414.39 32.15 412.72 21.37 407.83"/></svg>