<svg id="low_poly" data-name="low poly" xmlns="http://www.w3.org/2000/svg" viewBox="0 0 441.24 515.55"><defs><style>.cls-1{fill:none;stroke:#1d1d1b;stroke-linejoin:round;}</style></defs><title>low_poly_rhino</title><path class="cls-1" d="M222.88,297.66" transform="translate(-200.52 -15.13)"/><polygon class="cls-1" points="0.5 203.02 21.5 281.03 38.86 279.74 0.5 203.02"/><polygon class="cls-1" points="21.5 281.03 48.08 335.04 38.86 279.74 21.5 281.03"/><polygon class="cls-1" points="0.5 203.02 48.08 270.74 38.86 279.74 0.5 203.02"/><polygon class="cls-1" points="38.86 279.74 78.94 295.17 48.08 270.74 38.86 279.74"/><polygon class="cls-1" points="38.86 279.74 48.08 335.04 75.72 336.75 38.86 279.74"/><path class="cls-1" d="M265.09,386.38" transform="translate(-200.52 -15.13)"/><polygon class="cls-1" points="75.72 336.75 94.05 315.96 78.94 295.17 75.72 336.75"/><polygon class="cls-1" points="94.05 315.96 107.87 304.6 78.94 295.17 94.05 315.96"/><polygon class="cls-1" points="48.08 335.04 58.9 353.46 75.72 336.75 48.08 335.04"/><polygon class="cls-1" points="75.72 336.75 87.94 356.36 58.9 353.46 75.72 336.75"/><polygon class="cls-1" points="87.94 356.36 94.05 315.96 75.72 336.75 87.94 356.36"/><polygon class="cls-1" points="94.05 315.96 111.3 324.53 107.87 304.6 94.05 315.96"/><polygon class="cls-1" points="87.94 356.36 111.3 324.53 94.05 315.96 87.94 356.36"/><polygon class="cls-1" points="87.94 356.36 67.36 375.97 58.9 353.46 87.94 356.36"/><polygon class="cls-1" points="67.36 375.97 75.72 394.61 109.58 383.9 67.36 375.97"/><polygon class="cls-1" points="109.58 383.9 87.94 356.36 67.36 375.97 109.58 383.9"/><polygon class="cls-1" points="87.94 356.36 118.8 358.93 109.58 383.9 87.94 356.36"/><polygon class="cls-1" points="111.3 324.53 118.8 345.11 87.94 356.36 111.3 324.53"/><polygon class="cls-1" points="118.8 345.11 118.8 358.93 87.94 356.36 118.8 345.11"/><polygon class="cls-1" points="111.3 324.53 144.19 330.64 118.8 345.11 111.3 324.53"/><polygon class="cls-1" points="107.87 304.6 144.19 330.64 111.3 324.53 107.87 304.6"/><polygon class="cls-1" points="144.19 330.64 165.73 314.57 107.87 304.6 144.19 330.64"/><polygon class="cls-1" points="144.19 330.64 144.19 356.36 118.8 345.11 144.19 330.64"/><polygon class="cls-1" points="118.8 358.93 144.19 356.36 118.8 345.11 118.8 358.93"/><polygon class="cls-1" points="109.58 383.9 144.19 356.36 118.8 358.93 109.58 383.9"/><polygon class="cls-1" points="75.72 394.61 99.51 411.54 109.58 383.9 75.72 394.61"/><polygon class="cls-1" points="109.58 383.9 133.16 431.26 99.51 411.54 109.58 383.9"/><polygon class="cls-1" points="144.19 356.36 179.88 413.26 109.58 383.9 144.19 356.36"/><polygon class="cls-1" points="179.88 413.26 133.16 431.26 109.58 383.9 179.88 413.26"/><polygon class="cls-1" points="165.73 314.57 187.16 315.96 144.19 330.64 165.73 314.57"/><polygon class="cls-1" points="144.19 330.64 197.56 356.36 179.88 413.26 144.19 330.64"/><polygon class="cls-1" points="144.19 356.36 144.19 330.64 179.88 413.26 144.19 356.36"/><polygon class="cls-1" points="197.56 356.36 187.16 315.96 144.19 330.64 197.56 356.36"/><polygon class="cls-1" points="38.86 279.74 75.72 336.75 78.94 295.17 38.86 279.74"/><polygon class="cls-1" points="133.16 431.26 128.66 437.9 148.16 446.48 133.16 431.26"/><polygon class="cls-1" points="148.16 446.48 168.09 437.05 133.16 431.26 148.16 446.48"/><polygon class="cls-1" points="168.09 437.05 179.88 413.26 133.16 431.26 168.09 437.05"/><polygon class="cls-1" points="168.09 437.05 187.16 418.62 179.88 413.26 168.09 437.05"/><polygon class="cls-1" points="187.16 418.62 206.88 402.33 199.16 387.97 187.16 418.62"/><polygon class="cls-1" points="197.56 356.36 199.16 387.97 179.88 413.26 197.56 356.36"/><polygon class="cls-1" points="179.88 413.26 187.16 418.62 199.16 387.97 179.88 413.26"/><polygon class="cls-1" points="199.16 387.97 257.45 362.47 197.56 356.36 199.16 387.97"/><polygon class="cls-1" points="206.88 402.33 262.38 402.33 272.94 381.59 206.88 402.33"/><polygon class="cls-1" points="199.16 387.97 206.88 402.33 257.45 362.47 199.16 387.97"/><polygon class="cls-1" points="187.16 315.96 233.24 298.82 197.56 356.36 187.16 315.96"/><polygon class="cls-1" points="233.24 298.82 257.45 362.47 197.56 356.36 233.24 298.82"/><polygon class="cls-1" points="128.66 437.9 124.37 445.4 128.66 451.83 128.66 437.9"/><polygon class="cls-1" points="128.66 451.83 145.59 465.98 128.66 437.9 128.66 451.83"/><polygon class="cls-1" points="145.59 465.98 148.16 446.48 128.66 437.9 145.59 465.98"/><polygon class="cls-1" points="145.59 465.98 172.59 458.8 148.16 446.48 145.59 465.98"/><polygon class="cls-1" points="172.59 458.8 168.09 437.05 148.16 446.48 172.59 458.8"/><polygon class="cls-1" points="168.09 437.05 199.16 433.83 172.59 458.8 168.09 437.05"/><polygon class="cls-1" points="199.16 433.83 187.16 418.62 168.09 437.05 199.16 433.83"/><polygon class="cls-1" points="199.16 433.83 206.88 402.33 187.16 418.62 199.16 433.83"/><polygon class="cls-1" points="199.16 433.83 229.38 410.47 206.88 402.33 199.16 433.83"/><polygon class="cls-1" points="229.38 410.47 262.38 402.33 206.88 402.33 229.38 410.47"/><polygon class="cls-1" points="206.88 402.33 272.94 381.59 257.45 362.47 206.88 402.33"/><polygon class="cls-1" points="128.66 451.83 121.61 456.98 136.59 473.16 128.66 451.83"/><polygon class="cls-1" points="121.61 456.98 119.6 472.17 136.59 473.16 121.61 456.98"/><polygon class="cls-1" points="136.59 473.16 160.37 479.16 145.59 465.98 136.59 473.16"/><polygon class="cls-1" points="128.66 451.83 136.59 473.16 145.59 465.98 128.66 451.83"/><polygon class="cls-1" points="160.37 479.16 172.59 458.8 145.59 465.98 160.37 479.16"/><polygon class="cls-1" points="172.59 458.8 192.41 465.07 160.37 479.16 172.59 458.8"/><polygon class="cls-1" points="192.41 465.07 196.28 447.17 172.59 458.8 192.41 465.07"/><polygon class="cls-1" points="199.16 433.83 218.13 438.87 196.28 447.17 199.16 433.83"/><polygon class="cls-1" points="218.13 438.87 215.72 451.83 196.28 447.17 218.13 438.87"/><polygon class="cls-1" points="192.41 465.07 215.72 451.83 196.28 447.17 192.41 465.07"/><polygon class="cls-1" points="199.16 433.83 172.59 458.8 196.28 447.17 199.16 433.83"/><polygon class="cls-1" points="218.13 438.87 248.03 425.15 229.38 410.47 218.13 438.87"/><polygon class="cls-1" points="199.16 433.83 218.13 438.87 229.38 410.47 199.16 433.83"/><polygon class="cls-1" points="248.03 425.15 262.38 402.33 229.38 410.47 248.03 425.15"/><polygon class="cls-1" points="119.6 472.17 124.37 484.41 136.59 473.16 119.6 472.17"/><polygon class="cls-1" points="124.37 484.41 160.37 479.16 136.59 473.16 124.37 484.41"/><polygon class="cls-1" points="124.37 484.41 154.27 494.8 160.37 479.16 124.37 484.41"/><polygon class="cls-1" points="154.27 494.8 183.63 489.98 160.37 479.16 154.27 494.8"/><polygon class="cls-1" points="183.63 489.98 192.41 465.07 160.37 479.16 183.63 489.98"/><polygon class="cls-1" points="192.41 465.07 206.24 468.98 183.63 489.98 192.41 465.07"/><polygon class="cls-1" points="206.24 468.98 222.84 462.49 215.72 451.83 206.24 468.98"/><polygon class="cls-1" points="192.41 465.07 206.24 468.98 215.72 451.83 192.41 465.07"/><polygon class="cls-1" points="222.84 462.49 248.67 447.17 248.03 425.15 222.84 462.49"/><polygon class="cls-1" points="215.72 451.83 248.03 425.15 218.13 438.87 215.72 451.83"/><polygon class="cls-1" points="215.72 451.83 222.84 462.49 248.03 425.15 215.72 451.83"/><polygon class="cls-1" points="124.37 484.41 144.19 515.05 154.27 494.8 124.37 484.41"/><polygon class="cls-1" points="144.19 515.05 192.41 510.34 154.27 494.8 144.19 515.05"/><polygon class="cls-1" points="183.63 489.98 219.52 504.93 192.41 510.34 183.63 489.98"/><polygon class="cls-1" points="154.27 494.8 192.41 510.34 183.63 489.98 154.27 494.8"/><polygon class="cls-1" points="206.24 468.98 219.52 504.93 183.63 489.98 206.24 468.98"/><polygon class="cls-1" points="222.84 462.49 219.52 504.93 206.24 468.98 222.84 462.49"/><polygon class="cls-1" points="248.67 447.17 221.38 481.15 222.84 462.49 248.67 447.17"/><polygon class="cls-1" points="219.52 504.93 248.67 504.93 221.38 481.15 219.52 504.93"/><polygon class="cls-1" points="248.67 447.17 265.71 488.7 221.38 481.15 248.67 447.17"/><polygon class="cls-1" points="271.6 503.05 248.67 504.93 221.38 481.15 271.6 503.05"/><polygon class="cls-1" points="248.67 447.17 278.03 458.8 265.71 488.7 248.67 447.17"/><polygon class="cls-1" points="278.03 458.8 288.11 484.42 265.71 488.7 278.03 458.8"/><polygon class="cls-1" points="288.11 484.42 271.6 503.05 265.71 488.7 288.11 484.42"/><polygon class="cls-1" points="221.38 481.15 271.6 503.05 265.71 488.7 221.38 481.15"/><polygon class="cls-1" points="272.94 381.59 327.75 392.44 262.38 402.33 272.94 381.59"/><polygon class="cls-1" points="248.03 425.15 349.29 431.26 327.75 392.44 248.03 425.15"/><polygon class="cls-1" points="248.03 425.15 262.38 402.33 327.75 392.44 248.03 425.15"/><polygon class="cls-1" points="288.11 484.42 349.29 431.26 278.03 458.8 288.11 484.42"/><polygon class="cls-1" points="278.03 458.8 248.67 447.17 349.29 431.26 278.03 458.8"/><polygon class="cls-1" points="248.67 447.17 248.03 425.15 349.29 431.26 248.67 447.17"/><polygon class="cls-1" points="272.94 381.59 321.32 345.11 327.75 392.44 272.94 381.59"/><polygon class="cls-1" points="272.94 381.59 257.45 362.47 276.58 352.02 272.94 381.59"/><polygon class="cls-1" points="276.58 352.02 298.66 362.2 272.94 381.59 276.58 352.02"/><polygon class="cls-1" points="276.58 352.02 298.66 343.5 298.66 362.2 276.58 352.02"/><polygon class="cls-1" points="298.66 343.5 321.32 345.11 298.66 362.2 298.66 343.5"/><polygon class="cls-1" points="276.58 352.02 233.24 298.82 257.45 362.47 276.58 352.02"/><polygon class="cls-1" points="298.66 343.5 274.87 324.21 276.58 352.02 298.66 343.5"/><polygon class="cls-1" points="274.87 324.21 233.24 298.82 276.58 352.02 274.87 324.21"/><polygon class="cls-1" points="274.87 324.21 286.76 310.07 288.46 335.23 274.87 324.21"/><polygon class="cls-1" points="286.76 310.07 302.67 328.87 288.46 335.23 286.76 310.07"/><polygon class="cls-1" points="302.67 328.87 298.66 343.5 288.46 335.23 302.67 328.87"/><polygon class="cls-1" points="302.67 328.87 321.32 345.11 298.66 343.5 302.67 328.87"/><polygon class="cls-1" points="302.67 328.87 321.32 313.6 286.76 310.07 302.67 328.87"/><polygon class="cls-1" points="321.32 313.6 321.32 345.11 302.67 328.87 321.32 313.6"/><polygon class="cls-1" points="321.32 345.11 398.79 343.5 327.75 392.44 321.32 345.11"/><polygon class="cls-1" points="349.29 431.26 382.07 391.96 327.75 392.44 349.29 431.26"/><polygon class="cls-1" points="382.07 391.96 398.79 343.5 327.75 392.44 382.07 391.96"/><polygon class="cls-1" points="286.76 310.07 233.24 298.82 274.87 324.21 286.76 310.07"/><polygon class="cls-1" points="291.42 305.03 296.89 295.44 303.24 311.52 291.42 305.03"/><polygon class="cls-1" points="296.89 295.44 313.93 297.75 303.24 311.52 296.89 295.44"/><polygon class="cls-1" points="313.93 297.75 321.32 313.6 303.24 311.75 313.93 297.75"/><polygon class="cls-1" points="291.42 305.03 286.76 310.07 303.24 311.75 291.42 305.03"/><polygon class="cls-1" points="296.89 295.44 276.58 280.49 263.78 291.1 296.89 295.44"/><polygon class="cls-1" points="263.78 291.1 291.42 305.03 296.89 295.44 263.78 291.1"/><polygon class="cls-1" points="263.78 291.1 286.76 310.07 291.42 305.03 263.78 291.1"/><polygon class="cls-1" points="276.58 280.49 291.42 276.94 296.89 295.44 276.58 280.49"/><polygon class="cls-1" points="291.42 276.94 318.59 286.92 296.89 295.44 291.42 276.94"/><polygon class="cls-1" points="318.59 286.92 313.93 297.75 296.89 295.44 318.59 286.92"/><polygon class="cls-1" points="318.59 286.92 321.32 313.6 313.93 297.75 318.59 286.92"/><polygon class="cls-1" points="263.78 291.1 233.24 298.82 286.76 310.07 263.78 291.1"/><polygon class="cls-1" points="321.32 313.6 398.79 343.5 321.32 345.11 321.32 313.6"/><polygon class="cls-1" points="318.59 286.92 398.79 343.5 321.32 313.6 318.59 286.92"/><polygon class="cls-1" points="233.24 298.82 233.24 273.42 205.38 264.96 233.24 298.82"/><polygon class="cls-1" points="196.82 288.92 187.16 315.96 233.24 298.82 196.82 288.92"/><polygon class="cls-1" points="165.73 314.57 183.09 278.46 187.16 315.96 165.73 314.57"/><polygon class="cls-1" points="183.09 278.46 196.82 288.92 187.16 315.96 183.09 278.46"/><polygon class="cls-1" points="183.09 278.46 142.37 223.17 205.38 264.96 183.09 278.46"/><polygon class="cls-1" points="183.09 278.46 196.82 288.92 205.38 264.96 183.09 278.46"/><polygon class="cls-1" points="183.09 278.46 158.23 285.74 165.73 314.57 183.09 278.46"/><polygon class="cls-1" points="158.23 285.74 133.43 309 165.73 314.57 158.23 285.74"/><polygon class="cls-1" points="142.37 223.17 142.37 255.1 183.09 278.46 142.37 223.17"/><polygon class="cls-1" points="142.37 255.1 158.23 285.74 183.09 278.46 142.37 255.1"/><polygon class="cls-1" points="142.37 255.1 141.09 301.82 158.23 285.74 142.37 255.1"/><polygon class="cls-1" points="205.38 264.96 149.66 212.88 142.37 223.17 205.38 264.96"/><polygon class="cls-1" points="233.24 273.42 208.16 250.81 191.43 251.92 233.24 273.42"/><polygon class="cls-1" points="191.43 251.92 205.38 264.96 233.24 273.42 191.43 251.92"/><polygon class="cls-1" points="196.82 288.92 233.24 298.82 205.38 264.96 196.82 288.92"/><polygon class="cls-1" points="233.24 273.42 263.78 291.1 233.24 298.82 233.24 273.42"/><polygon class="cls-1" points="276.58 280.49 271.17 280.49 284.67 273.42 276.58 280.49"/><polygon class="cls-1" points="284.67 273.42 291.42 276.94 276.58 280.49 284.67 273.42"/><polygon class="cls-1" points="284.67 273.42 301.71 275.51 291.42 276.94 284.67 273.42"/><polygon class="cls-1" points="301.71 275.51 318.59 286.92 291.42 276.94 301.71 275.51"/><polygon class="cls-1" points="271.17 280.49 263.78 291.1 276.58 280.49 271.17 280.49"/><polygon class="cls-1" points="233.24 273.42 271.17 280.49 263.78 291.1 233.24 273.42"/><polygon class="cls-1" points="208.16 250.81 284.67 273.42 271.17 280.49 208.16 250.81"/><polygon class="cls-1" points="208.16 250.81 233.24 273.42 271.17 280.49 208.16 250.81"/><polygon class="cls-1" points="284.67 273.42 276.58 245.78 254.91 264.63 284.67 273.42"/><polygon class="cls-1" points="208.16 250.81 272.94 205.27 254.91 264.63 208.16 250.81"/><polygon class="cls-1" points="276.58 245.78 272.94 205.27 254.91 264.63 276.58 245.78"/><polygon class="cls-1" points="301.71 275.51 276.58 245.78 284.67 273.42 301.71 275.51"/><polygon class="cls-1" points="272.94 205.27 301.71 275.51 276.58 245.78 272.94 205.27"/><polygon class="cls-1" points="208.16 250.81 202.06 205.27 272.94 205.27 208.16 250.81"/><polygon class="cls-1" points="202.06 205.27 191.43 251.92 208.16 250.81 202.06 205.27"/><polygon class="cls-1" points="202.06 205.27 185.97 246.81 191.43 251.92 202.06 205.27"/><polygon class="cls-1" points="272.94 205.27 325.5 257.03 301.71 275.51 272.94 205.27"/><polygon class="cls-1" points="325.5 257.03 318.59 286.92 301.71 275.51 325.5 257.03"/><polygon class="cls-1" points="325.5 257.03 378.74 329.36 318.59 286.92 325.5 257.03"/><polygon class="cls-1" points="398.79 343.5 387.86 262.12 378.74 329.36 398.79 343.5"/><polygon class="cls-1" points="387.86 262.12 358.69 259.6 378.74 329.36 387.86 262.12"/><polygon class="cls-1" points="358.69 259.6 325.5 257.03 378.74 329.36 358.69 259.6"/><polygon class="cls-1" points="358.69 259.6 363.27 215.88 387.86 262.12 358.69 259.6"/><polygon class="cls-1" points="363.27 215.88 344.79 181.48 376.61 158.98 363.27 215.88"/><polygon class="cls-1" points="376.61 158.98 387.86 262.12 363.27 215.88 376.61 158.98"/><polygon class="cls-1" points="344.79 181.48 305.41 199.49 363.27 215.88 344.79 181.48"/><polygon class="cls-1" points="305.41 199.49 358.69 259.6 363.27 215.88 305.41 199.49"/><polygon class="cls-1" points="305.41 199.49 325.5 257.03 358.69 259.6 305.41 199.49"/><polygon class="cls-1" points="305.41 199.49 272.94 205.27 325.5 257.03 305.41 199.49"/><polygon class="cls-1" points="202.06 205.27 252.21 149.98 272.94 205.27 202.06 205.27"/><polygon class="cls-1" points="252.21 149.98 305.41 199.49 272.94 205.27 252.21 149.98"/><polygon class="cls-1" points="252.21 149.98 344.79 181.48 305.41 199.49 252.21 149.98"/><polygon class="cls-1" points="376.61 158.98 311.03 160.91 344.79 181.48 376.61 158.98"/><polygon class="cls-1" points="311.03 160.91 252.21 149.98 344.79 181.48 311.03 160.91"/><polygon class="cls-1" points="202.06 205.27 226.17 161.55 252.21 149.98 202.06 205.27"/><polygon class="cls-1" points="226.17 161.55 193.79 170.43 202.06 205.27 226.17 161.55"/><polygon class="cls-1" points="193.79 170.43 190.16 155.12 212.02 153.68 193.79 170.43"/><polygon class="cls-1" points="212.02 153.68 252.21 149.98 226.17 161.55 212.02 153.68"/><polygon class="cls-1" points="193.79 170.43 226.17 161.55 212.02 153.68 193.79 170.43"/><polygon class="cls-1" points="252.21 149.98 256.38 123.78 212.02 153.68 252.21 149.98"/><polygon class="cls-1" points="256.38 123.78 311.03 160.91 252.21 149.98 256.38 123.78"/><polygon class="cls-1" points="212.02 153.68 225.2 129.09 256.38 123.78 212.02 153.68"/><polygon class="cls-1" points="190.16 155.12 225.2 129.09 212.02 153.68 190.16 155.12"/><polygon class="cls-1" points="190.16 155.12 193.22 133.75 225.2 129.09 190.16 155.12"/><polygon class="cls-1" points="376.61 158.98 339.16 138.73 311.03 160.91 376.61 158.98"/><polygon class="cls-1" points="339.16 138.73 301.55 120.89 311.03 160.91 339.16 138.73"/><polygon class="cls-1" points="301.55 120.89 256.38 123.78 311.03 160.91 301.55 120.89"/><polygon class="cls-1" points="225.2 129.09 245.29 97.1 256.38 123.78 225.2 129.09"/><polygon class="cls-1" points="193.22 133.75 217.65 108.03 225.2 129.09 193.22 133.75"/><polygon class="cls-1" points="217.65 108.03 245.29 97.1 225.2 129.09 217.65 108.03"/><polygon class="cls-1" points="217.65 108.03 191.93 99.99 193.22 133.75 217.65 108.03"/><polygon class="cls-1" points="217.65 108.03 220.38 79.42 191.93 99.99 217.65 108.03"/><polygon class="cls-1" points="220.38 79.42 238.7 66.08 217.65 108.03 220.38 79.42"/><polygon class="cls-1" points="238.7 66.08 245.29 97.1 217.65 108.03 238.7 66.08"/><polygon class="cls-1" points="339.16 138.73 342.86 122.01 314.57 116.87 339.16 138.73"/><polygon class="cls-1" points="314.41 116.87 301.39 120.89 339 138.73 314.41 116.87"/><polygon class="cls-1" points="376.61 158.98 374.52 137.76 339.16 138.73 376.61 158.98"/><polygon class="cls-1" points="374.52 137.76 377.57 118.96 342.86 122.01 374.52 137.76"/><polygon class="cls-1" points="342.86 122.01 339.16 138.73 374.52 137.76 342.86 122.01"/><polygon class="cls-1" points="342.86 122.01 326.94 86.01 314.57 116.87 342.86 122.01"/><polygon class="cls-1" points="326.94 86.01 377.57 118.96 342.86 122.01 326.94 86.01"/><polygon class="cls-1" points="326.94 86.01 342.86 72.19 332.41 69.45 326.94 86.01"/><polygon class="cls-1" points="377.57 118.96 387.86 105.46 326.94 86.01 377.57 118.96"/><polygon class="cls-1" points="387.86 105.46 342.86 72.19 326.94 86.01 387.86 105.46"/><polygon class="cls-1" points="245.29 97.1 275.83 98.55 256.38 123.78 245.29 97.1"/><polygon class="cls-1" points="275.83 98.55 301.55 120.89 256.38 123.78 275.83 98.55"/><polygon class="cls-1" points="275.83 98.55 326.94 86.01 314.57 116.87 275.83 98.55"/><polygon class="cls-1" points="275.83 98.55 301.55 120.89 314.57 116.87 275.83 98.55"/><polygon class="cls-1" points="245.29 97.1 271.97 67.85 238.7 66.08 245.29 97.1"/><polygon class="cls-1" points="271.97 67.85 275.83 98.55 245.29 97.1 271.97 67.85"/><polygon class="cls-1" points="271.97 67.85 326.94 86.01 275.83 98.55 271.97 67.85"/><polygon class="cls-1" points="271.97 67.85 332.41 69.45 326.94 86.01 271.97 67.85"/><polygon class="cls-1" points="271.97 67.85 300.58 51.77 261.53 51.77 271.97 67.85"/><polygon class="cls-1" points="261.53 51.77 238.7 66.08 271.97 67.85 261.53 51.77"/><polygon class="cls-1" points="300.58 51.77 332.41 69.45 271.97 67.85 300.58 51.77"/><polygon class="cls-1" points="342.86 72.19 341.57 53.54 332.41 69.45 342.86 72.19"/><polygon class="cls-1" points="341.57 53.54 300.58 51.77 332.41 69.45 341.57 53.54"/><polygon class="cls-1" points="341.57 53.54 361.02 64.63 342.86 72.19 341.57 53.54"/><polygon class="cls-1" points="387.86 105.46 398.47 86.01 367.11 90.11 387.86 105.46"/><polygon class="cls-1" points="367.11 90.11 361.02 64.63 342.86 72.19 367.11 90.11"/><polygon class="cls-1" points="398.47 86.01 422.9 60.61 367.11 90.11 398.47 86.01"/><polygon class="cls-1" points="361.02 64.63 389.79 48.56 367.11 90.11 361.02 64.63"/><polygon class="cls-1" points="389.79 48.56 422.9 60.61 367.11 90.11 389.79 48.56"/><polygon class="cls-1" points="422.9 60.61 433.03 38.43 389.79 48.56 422.9 60.61"/><polygon class="cls-1" points="389.79 48.56 432.06 18.5 433.03 38.43 389.79 48.56"/><polygon class="cls-1" points="432.06 18.5 428.2 2.75 440.74 8.38 432.06 18.5"/><polygon class="cls-1" points="440.74 8.38 433.03 38.43 432.06 18.5 440.74 8.38"/><polygon class="cls-1" points="422.9 60.61 422.9 64.63 398.47 86.01 422.9 60.61"/><polygon class="cls-1" points="422.9 64.63 434.47 43.74 433.03 38.43 422.9 60.61 422.9 64.63"/><polygon class="cls-1" points="434.47 43.74 438.97 24.61 440.74 8.38 433.03 38.43 434.47 43.74"/><polygon class="cls-1" points="422.9 64.63 423.97 73.31 398.47 86.01 422.9 64.63"/><polygon class="cls-1" points="423.97 73.31 410.69 97.1 398.47 86.01 423.97 73.31"/><polygon class="cls-1" points="387.86 105.46 410.69 97.1 398.47 86.01 387.86 105.46"/><polygon class="cls-1" points="191.93 99.99 186.95 75.32 220.38 79.42 191.93 99.99"/><polygon class="cls-1" points="186.95 75.32 223.59 70.79 220.38 79.42 186.95 75.32"/><polygon class="cls-1" points="223.59 70.79 228.77 73.31 220.38 79.42 223.59 70.79"/><polygon class="cls-1" points="186.95 75.32 176.23 60.61 181.59 39.5 186.95 75.32"/><polygon class="cls-1" points="176.23 60.61 171.3 47.65 181.59 39.5 176.23 60.61"/><polygon class="cls-1" points="223.59 70.79 227.13 35 186.95 75.32 223.59 70.79"/><polygon class="cls-1" points="181.59 39.5 227.13 35 186.95 75.32 181.59 39.5"/><polygon class="cls-1" points="181.59 39.5 201.09 8.38 227.13 35 181.59 39.5"/><polygon class="cls-1" points="201.09 8.38 220.38 4.14 217.65 25.31 201.09 8.38"/><polygon class="cls-1" points="218.73 16.95 227.13 35 217.65 25.31 218.73 16.95"/><polygon class="cls-1" points="201.09 8.38 177.73 20.86 181.59 39.5 201.09 8.38"/><polygon class="cls-1" points="177.73 20.86 171.3 47.65 181.59 39.5 177.73 20.86"/><polygon class="cls-1" points="227.13 35 230.34 56.43 223.59 70.79 227.13 35"/><polygon class="cls-1" points="177.73 20.86 174.52 20.86 170.23 33.53 171.3 47.65 177.73 20.86"/><polygon class="cls-1" points="174.52 20.86 184.81 9.93 201.09 5.21 201.09 8.38 177.73 20.86 174.52 20.86"/><polygon class="cls-1" points="201.09 5.21 220.38 0.5 220.38 4.14 201.09 8.38 201.09 5.21"/><polygon class="cls-1" points="220.38 0.5 224.57 4.44 218.73 16.95 220.38 0.5"/><polygon class="cls-1" points="227.13 35 226.97 27.93 220.38 16.95 218.73 16.95 227.13 35"/><polygon class="cls-1" points="226.97 27.93 231.47 42.29 230.34 56.43 227.13 35 226.97 27.93"/><polygon class="cls-1" points="230.34 56.43 228.77 73.31 223.59 70.79 230.34 56.43"/><polygon class="cls-1" points="190.16 206.24 202.06 205.27 190.16 155.12 190.16 206.24"/><polygon class="cls-1" points="202.06 205.27 190.16 206.24 185.97 246.81 202.06 205.27"/></svg>